<?xml version="1.0" encoding="utf-8"?>
<!-- Generator: Adobe Adobe Illustrator 24.2.0, SVG Export Plug-In . SVG Version: 6.00 Build 0)  -->
<svg version="1.1" xmlns="http://www.w3.org/2000/svg" xmlns:xlink="http://www.w3.org/1999/xlink" x="0px" y="0px"
	 viewBox="0 0 1280 1280" style="enable-background:new 0 0 1280 1280;" xml:space="preserve">
<style type="text/css">
	.st0{fill:#C0FF00;}
	.st1{fill:#040419;}
	.st2{fill:none;stroke:#FFFFFF;stroke-width:4.252;stroke-miterlimit:10;}
	.st3{fill:#FFFFFF;}
	.st4{fill:#B7B7B7;}
	.st5{fill:#26490B;}
</style>
<g id="レイヤー_1">
	<path class="st0" d="M0,1080V200C0,89.54,89.54,0,200,0h880c110.46,0,200,89.54,200,200v880c0,110.46-89.54,200-200,200H200
		C89.54,1280,0,1190.46,0,1080z"/>
	<g>
		<path class="st1" d="M390,640L390,640V327.74V240H240v400l0,0l0,0c0,64.88,15.46,126.16,42.88,180.35l115.61-115.61
			C392.96,684.09,390,662.39,390,640z"/>
		<path class="st1" d="M640,890c-41.72,0-81.05-10.23-115.63-28.3l446.51-446.51c-1.58-2.32-3.19-4.62-4.82-6.9
			c-0.36-0.51-0.72-1.02-1.09-1.53c-1.61-2.23-3.23-4.45-4.88-6.65c-0.25-0.33-0.49-0.65-0.74-0.97c-1.51-1.99-3.03-3.97-4.57-5.94
			c-0.34-0.43-0.67-0.86-1.01-1.29c-1.7-2.14-3.42-4.27-5.16-6.38c-0.36-0.44-0.73-0.87-1.09-1.31c-1.62-1.95-3.26-3.88-4.92-5.8
			c-0.22-0.26-0.44-0.52-0.67-0.78c-1.81-2.08-3.65-4.14-5.5-6.19c-0.42-0.46-0.83-0.92-1.25-1.37c-1.89-2.06-3.78-4.11-5.71-6.13
			c-0.07-0.08-0.15-0.15-0.23-0.23c-1.88-1.96-3.78-3.91-5.7-5.83c-0.42-0.42-0.83-0.84-1.25-1.25c-1.96-1.95-3.93-3.88-5.92-5.79
			c-0.3-0.29-0.61-0.57-0.91-0.86c-1.84-1.75-3.69-3.47-5.56-5.18c-0.35-0.32-0.69-0.64-1.04-0.95c-2.05-1.86-4.12-3.7-6.21-5.52
			c-0.4-0.35-0.81-0.7-1.22-1.05c-2.03-1.75-4.06-3.49-6.13-5.2c-0.14-0.12-0.28-0.24-0.43-0.36c-2.18-1.8-4.37-3.57-6.59-5.33
			c-0.44-0.34-0.87-0.69-1.31-1.03c-2.23-1.76-4.48-3.49-6.75-5.2c-0.08-0.06-0.17-0.12-0.25-0.18c-2.22-1.67-4.46-3.31-6.71-4.93
			c-0.4-0.29-0.8-0.58-1.2-0.86c-2.3-1.64-4.62-3.27-6.96-4.86c-0.1-0.07-0.19-0.14-0.29-0.2l0,0C800.74,265.5,723.35,240,640,240
			c-72.86,0-141.16,19.48-200,53.52v196.47C485.61,429.27,558.22,390,640,390c41.72,0,81.05,10.23,115.63,28.3L309.12,864.82
			c1.58,2.32,3.19,4.62,4.82,6.9c0.36,0.51,0.72,1.02,1.09,1.53c1.61,2.23,3.23,4.45,4.88,6.65c0.24,0.32,0.49,0.64,0.74,0.97
			c1.51,2,3.04,3.98,4.59,5.95c0.33,0.42,0.66,0.85,1,1.27c1.7,2.15,3.43,4.28,5.17,6.39c0.36,0.43,0.72,0.86,1.08,1.29
			c1.63,1.96,3.28,3.91,4.95,5.83c0.21,0.25,0.42,0.5,0.64,0.74c1.82,2.09,3.66,4.16,5.52,6.21c0.41,0.45,0.82,0.9,1.23,1.35
			c1.89,2.07,3.8,4.12,5.73,6.15c0.06,0.06,0.12,0.12,0.18,0.18c1.9,1.99,3.82,3.95,5.76,5.89c0.4,0.41,0.81,0.81,1.21,1.22
			c1.96,1.96,3.95,3.9,5.95,5.81c0.29,0.28,0.58,0.55,0.87,0.82c1.86,1.77,3.73,3.51,5.62,5.24c0.33,0.3,0.66,0.61,0.99,0.91
			c2.06,1.87,4.15,3.72,6.25,5.55c0.39,0.34,0.78,0.67,1.17,1.01c2.05,1.77,4.12,3.53,6.2,5.26c0.12,0.1,0.24,0.2,0.36,0.3
			c2.19,1.81,4.4,3.59,6.62,5.36c0.42,0.33,0.84,0.67,1.27,1c2.25,1.76,4.5,3.51,6.79,5.23c0.06,0.05,0.13,0.09,0.19,0.14
			c2.24,1.68,4.5,3.34,6.78,4.97c0.39,0.28,0.78,0.56,1.16,0.84c2.31,1.65,4.64,3.28,6.99,4.88c0.09,0.06,0.19,0.13,0.28,0.19l0,0
			C479.26,1014.5,556.65,1040,640,1040c0,0,0.01,0,0.01,0H1040V890H640L640,890z"/>
		<path class="st1" d="M890,640c0,81.78-39.27,154.39-99.99,200h196.47c34.04-58.84,53.52-127.14,53.52-200
			c0-64.88-15.46-126.16-42.88-180.35L881.52,575.26C887.04,595.91,890,617.61,890,640z"/>
	</g>
</g>
<g id="レイヤー_2">
</g>
</svg>
