<?xml version="1.0" encoding="UTF-8"?><svg id="_レイヤー_1" xmlns="http://www.w3.org/2000/svg" viewBox="0 0 190 920"><defs><style>.cls-1{fill:none;stroke:#c0ff00;stroke-miterlimit:10;stroke-width:.28px;}</style></defs><path class="cls-1" d="M127.69,8.9v24.19h-11.09v.34c1.57.78,3.13,1.9,4.7,3.36,1.57,1.45,2.97,3.19,4.2,5.21,1.23,2.02,2.24,4.31,3.02,6.89.78,2.57,1.18,5.38,1.18,8.4,0,6.38-.98,11.53-2.94,15.45-1.96,3.92-4.68,6.97-8.15,9.15-3.47,2.18-7.56,3.67-12.26,4.45-4.7.78-9.8,1.18-15.29,1.18h-45.02v-25.2h39.98c2.35,0,4.79-.08,7.31-.25s4.84-.67,6.97-1.51c2.13-.84,3.86-2.13,5.21-3.86,1.34-1.74,2.02-4.23,2.02-7.47s-.59-5.88-1.76-7.89-2.75-3.56-4.7-4.62c-1.96-1.07-4.17-1.76-6.63-2.1-2.46-.34-5.04-.5-7.73-.5h-40.65V8.9h81.63Z"/><path class="cls-1" d="M127.69,105.65v25.2H46.06v-25.2h81.63ZM153.39,103.63c4.03,0,7.47,1.43,10.33,4.28s4.28,6.3,4.28,10.33-1.43,7.47-4.28,10.33-6.3,4.28-10.33,4.28-7.47-1.43-10.33-4.28-4.28-6.3-4.28-10.33,1.43-7.47,4.28-10.33,6.3-4.28,10.33-4.28Z"/><path class="cls-1" d="M52.95,234.65c-15.45,0-27.18-3.89-35.19-11.67-8-7.78-12.01-19.63-12.01-35.53,0-7.28.81-14.45,2.44-21.5,1.62-7.05,4.79-13.55,9.49-19.48l20.83,13.94c-3.25,3.92-5.82,8.03-7.73,12.35-1.9,4.31-2.86,9.04-2.86,14.19,0,7.73,1.88,13.41,5.63,17.05,3.75,3.64,8.54,5.46,14.36,5.46h7.89v-.34c-3.92-2.91-6.69-6.52-8.31-10.83-1.62-4.31-2.44-8.37-2.44-12.18,0-6.05,1.03-11.54,3.11-16.46,2.07-4.93,4.98-9.15,8.73-12.68,3.75-3.53,8.2-6.24,13.35-8.15,5.15-1.91,10.81-2.86,16.96-2.86,5.38,0,10.64.87,15.79,2.6,5.15,1.73,9.68,4.2,13.61,7.39,3.92,3.19,7.08,7.08,9.49,11.67,2.41,4.59,3.61,9.8,3.61,15.62,0,3.58-.39,6.86-1.18,9.83-.78,2.97-1.79,5.63-3.02,7.98-1.23,2.35-2.6,4.37-4.12,6.05s-3,3.02-4.45,4.03v.34h10.75v23.18H52.95ZM87.38,171.16c-2.69,0-5.24.5-7.64,1.51-2.41,1.01-4.54,2.44-6.38,4.28s-3.33,3.97-4.45,6.38c-1.12,2.41-1.68,5.07-1.68,7.98s.56,5.43,1.68,7.89c1.12,2.46,2.6,4.62,4.45,6.47s3.97,3.28,6.38,4.28c2.41,1.01,4.96,1.51,7.64,1.51s5.23-.5,7.64-1.51c2.41-1.01,4.54-2.44,6.38-4.28s3.33-4,4.45-6.47c1.12-2.46,1.68-5.1,1.68-7.89s-.56-5.57-1.68-7.98c-1.12-2.41-2.6-4.54-4.45-6.38s-3.98-3.28-6.38-4.28c-2.41-1.01-4.96-1.51-7.64-1.51Z"/><path class="cls-1" d="M173.05,280h-56.44v.34c1.57.56,3.13,1.51,4.7,2.86,1.57,1.34,2.97,2.97,4.2,4.87,1.23,1.9,2.24,4.14,3.02,6.72.78,2.57,1.18,5.38,1.18,8.4,0,6.38-.98,11.53-2.94,15.45-1.96,3.92-4.68,6.97-8.15,9.15-3.47,2.18-7.56,3.67-12.26,4.45-4.7.78-9.8,1.18-15.29,1.18h-45.02v-25.2h39.98c2.35,0,4.79-.08,7.31-.25s4.84-.67,6.97-1.51c2.13-.84,3.86-2.13,5.21-3.86,1.34-1.74,2.02-4.23,2.02-7.47s-.59-5.88-1.76-7.89-2.75-3.56-4.7-4.62c-1.96-1.07-4.17-1.76-6.63-2.1-2.46-.34-5.04-.5-7.73-.5h-40.65v-25.2h126.98v25.2Z"/><path class="cls-1" d="M107.54,406.81v-22.17h-27.21c-2.24,0-4.28.11-6.13.34-1.85.22-3.44.73-4.79,1.51-1.34.78-2.38,1.99-3.11,3.61-.73,1.62-1.09,3.78-1.09,6.47,0,1.34.14,3.11.42,5.29.28,2.18.92,3.83,1.93,4.96h-21c-1.01-2.8-1.68-5.71-2.02-8.73s-.5-5.99-.5-8.9c0-4.26.45-8.18,1.34-11.76.9-3.58,2.32-6.72,4.28-9.41,1.96-2.69,4.51-4.79,7.64-6.3,3.13-1.51,6.94-2.27,11.42-2.27h38.8v-16.12h20.16v16.12h24.19v25.2h-24.19v22.17h-20.16Z"/><path class="cls-1" d="M127.69,460.73v27.21l-55.43,20.66v.34l55.43,19.15v25.36l-81.63-32.25v-26.71l81.63-33.76Z"/><path class="cls-1" d="M127.69,563.02v25.2H46.06v-25.2h81.63ZM153.39,561.01c4.03,0,7.47,1.43,10.33,4.28s4.28,6.3,4.28,10.33-1.43,7.47-4.28,10.33-6.3,4.28-10.33,4.28-7.47-1.43-10.33-4.28-4.28-6.3-4.28-10.33,1.43-7.47,4.28-10.33,6.3-4.28,10.33-4.28Z"/><path class="cls-1" d="M103.67,652.55c4.59-3.7,6.89-8.57,6.89-14.61,0-2.13-.5-4.2-1.51-6.21s-2.75-3.02-5.21-3.02c-2.02,0-3.5,1.03-4.45,3.11-.95,2.07-1.79,4.7-2.52,7.89-.73,3.19-1.51,6.61-2.35,10.25-.84,3.64-2.16,7.05-3.95,10.25-1.79,3.19-4.23,5.82-7.31,7.89-3.08,2.07-7.2,3.11-12.35,3.11s-9.6-1.15-13.02-3.44c-3.42-2.3-6.16-5.24-8.23-8.82-2.07-3.58-3.53-7.62-4.37-12.09-.84-4.48-1.26-8.9-1.26-13.27,0-5.71.81-11.48,2.44-17.3,1.62-5.82,4.51-10.75,8.65-14.78l16.96,15.29c-2.91,2.35-5.12,4.96-6.63,7.81s-2.27,6.19-2.27,9.99c0,2.91.42,5.54,1.26,7.89s2.38,3.53,4.62,3.53c2.13,0,3.72-1.04,4.79-3.11,1.06-2.07,1.96-4.7,2.69-7.89.73-3.19,1.51-6.61,2.35-10.25.84-3.64,2.1-7.05,3.78-10.25s4.06-5.82,7.14-7.89c3.08-2.07,7.19-3.11,12.35-3.11,4.81,0,8.96.98,12.43,2.94,3.47,1.96,6.32,4.54,8.57,7.73,2.24,3.19,3.89,6.86,4.96,11,1.06,4.14,1.6,8.34,1.6,12.6,0,5.38-.78,10.8-2.35,16.29-1.57,5.49-4.37,10.13-8.4,13.94l-15.29-15.45Z"/><path class="cls-1" d="M127.69,684.46v25.2H46.06v-25.2h81.63ZM153.39,682.44c4.03,0,7.47,1.43,10.33,4.28s4.28,6.3,4.28,10.33-1.43,7.47-4.28,10.33-6.3,4.28-10.33,4.28-7.47-1.43-10.33-4.28-4.28-6.3-4.28-10.33,1.43-7.47,4.28-10.33,6.3-4.28,10.33-4.28Z"/><path class="cls-1" d="M86.88,724.77c6.49,0,12.37,1.18,17.64,3.53,5.26,2.35,9.77,5.57,13.52,9.66,3.75,4.09,6.63,8.9,8.65,14.45s3.02,11.45,3.02,17.72-1.01,12.18-3.02,17.72-4.9,10.36-8.65,14.45c-3.75,4.09-8.26,7.31-13.52,9.66-5.26,2.35-11.14,3.53-17.64,3.53s-12.37-1.18-17.64-3.53c-5.26-2.35-9.77-5.57-13.52-9.66-3.75-4.09-6.63-8.9-8.65-14.45s-3.02-11.45-3.02-17.72,1.01-12.18,3.02-17.72,4.9-10.36,8.65-14.45c3.75-4.09,8.26-7.31,13.52-9.66,5.26-2.35,11.14-3.53,17.64-3.53ZM86.88,749.97c-6.16,0-11.14,1.76-14.95,5.29-3.81,3.53-5.71,8.48-5.71,14.87s1.9,11.34,5.71,14.87c3.81,3.53,8.79,5.29,14.95,5.29s11.14-1.76,14.95-5.29c3.81-3.53,5.71-8.48,5.71-14.87s-1.91-11.34-5.71-14.87c-3.81-3.53-8.79-5.29-14.95-5.29Z"/><path class="cls-1" d="M127.69,830.25v24.19h-11.09v.34c1.57.78,3.13,1.9,4.7,3.36,1.57,1.45,2.97,3.19,4.2,5.21,1.23,2.02,2.24,4.31,3.02,6.89.78,2.57,1.18,5.38,1.18,8.4,0,6.38-.98,11.53-2.94,15.45-1.96,3.92-4.68,6.97-8.15,9.15-3.47,2.18-7.56,3.67-12.26,4.45-4.7.78-9.8,1.18-15.29,1.18h-45.02v-25.2h39.98c2.35,0,4.79-.08,7.31-.25s4.84-.67,6.97-1.51c2.13-.84,3.86-2.13,5.21-3.86,1.34-1.74,2.02-4.23,2.02-7.47s-.59-5.88-1.76-7.89-2.75-3.56-4.7-4.62c-1.96-1.07-4.17-1.76-6.63-2.1-2.46-.34-5.04-.5-7.73-.5h-40.65v-25.2h81.63Z"/></svg>