<?xml version="1.0" encoding="UTF-8"?><svg id="_レイヤー_1" xmlns="http://www.w3.org/2000/svg" viewBox="0 0 540 540"><defs><style>.cls-1{fill:#cf0;}.cls-1,.cls-2{stroke-width:0px;}.cls-2{fill:#fff;}</style></defs><path class="cls-2" d="M30,208.1h25l23.7,40,23.5-40h24.8l-37.6,62.4v38.9h-22.2v-39.4l-37.2-61.9Z"/><path class="cls-2" d="M231.3,301.6c-7.7,6.7-18.2,10-31.8,10s-24.3-3.3-31.8-9.9-11.3-16.8-11.3-30.6v-63h22.3v63c0,2.7.2,5.4.7,8.1.5,2.6,1.5,5,3,7s3.6,3.7,6.3,5,6.3,1.9,10.9,1.9c7.9,0,13.4-1.8,16.4-5.3,3-3.6,4.5-9.1,4.5-16.7v-63h22.3v63c0,13.7-3.9,23.9-11.5,30.5Z"/><path class="cls-2" d="M314.5,208.1l23.7,69.6h.3l22.4-69.6h31.4v101.3h-20.9v-71.8h-.3l-24.8,71.8h-17.2l-24.8-71.1h-.3v71.1h-20.9v-101.3h31.4Z"/><path class="cls-2" d="M508.9,208.1v18.7h-53.5v21.7h49.1v17.3h-49.1v24.8h54.6v18.7h-76.9v-101.2h75.8Z"/><path class="cls-2" d="M36.1,352.8l-5.1-8.3h2.8l3.6,6.1,3.5-6.1h2.7l-5.1,8.3v5.3h-2.4v-5.3Z"/><path class="cls-2" d="M56.5,358.2h-2.1v-1.4h0c-.3.5-.7.9-1.2,1.2-.5.3-1.1.5-1.6.5-1.3,0-2.2-.3-2.8-1-.6-.6-.9-1.6-.9-2.9v-6.2h2.1v6c0,.9.2,1.5.5,1.8.3.4.8.5,1.4.5.5,0,.8-.1,1.1-.2s.5-.3.7-.6.3-.5.4-.9.1-.7.1-1.1v-5.7h2.2l.1,10h0Z"/><path class="cls-2" d="M62.1,348.3h2.1v1.4h.1c.2-.2.3-.5.5-.7s.4-.4.6-.5.5-.2.8-.3.7-.1,1.1-.1c.6,0,1.2.1,1.7.4s.9.7,1.1,1.2c.4-.5.8-.9,1.3-1.2.5-.3,1.1-.4,1.8-.4,1,0,1.8.2,2.4.8.6.5.9,1.4.9,2.5v6.8h-2.2v-6.9c0-.3-.1-.6-.2-.8s-.3-.4-.5-.5-.6-.2-1-.2c-.7,0-1.3.2-1.6.7-.3.5-.5,1.1-.5,1.9v5.8h-2.2v-6.3c0-.7-.1-1.2-.4-1.6-.2-.3-.7-.5-1.4-.5-.3,0-.6.1-.8.2-.3.1-.5.3-.7.5s-.4.5-.5.8-.2.7-.2,1.1v5.8h-2.2v-9.9h0Z"/><path class="cls-2" d="M83.6,353.8c0,.4.1.8.2,1.1.1.4.3.7.5.9.2.3.5.5.8.6.3.2.7.2,1.2.2.6,0,1.1-.1,1.5-.4s.7-.7.9-1.2h2.1c-.1.5-.3,1-.6,1.4-.3.4-.6.8-1,1.1-.4.3-.8.5-1.3.6-.5.2-1,.2-1.5.2-.8,0-1.5-.1-2.1-.4-.6-.2-1.1-.6-1.5-1.1s-.7-1-.9-1.6c-.2-.6-.3-1.3-.3-2.1,0-.7.1-1.4.3-2s.5-1.2.9-1.7.9-.9,1.5-1.1c.6-.3,1.2-.4,2-.4s1.5.2,2.1.5,1.1.8,1.5,1.3.7,1.2.9,1.8c.2.7.2,1.4.1,2.1l-7.3.2h0ZM88.7,352.4c0-.3-.1-.7-.2-1s-.3-.6-.5-.8c-.2-.2-.5-.4-.8-.6-.3-.1-.6-.2-1-.2s-.7.1-1,.2-.6.3-.8.6-.4.5-.5.8-.2.7-.2,1h5Z"/><path class="cls-2" d="M95.5,352h5.5v2h-5.5v-2Z"/><path class="cls-2" d="M105.5,348.3h2.4l2.5,7.5h0l2.4-7.5h2.2l-3.5,9.8h-2.5l-3.5-9.8Z"/><path class="cls-2" d="M119.6,344.6h2.2v2h-2.2v-2ZM119.6,348.3h2.2v9.8h-2.2v-9.8Z"/><path class="cls-2" d="M129.1,355c.1.6.3,1.1.7,1.3s.9.4,1.5.4c.2,0,.4,0,.7-.1.3,0,.5-.1.7-.2s.4-.2.6-.4.2-.4.2-.7-.1-.5-.3-.7-.4-.3-.7-.4-.6-.2-1-.3-.8-.2-1.2-.2c-.4-.1-.8-.2-1.2-.3-.4-.1-.7-.3-1-.5s-.5-.5-.7-.8-.3-.8-.3-1.2c0-.5.1-1,.4-1.3s.6-.6,1-.9.8-.4,1.3-.5.9-.1,1.4-.1,1,.1,1.5.2.9.3,1.3.5c.4.2.7.6.9.9.2.4.4.8.5,1.4h-2.3c-.1-.5-.3-.9-.7-1s-.8-.3-1.3-.3h-.5c-.2,0-.4.1-.6.1-.2.1-.3.2-.5.3-.1.1-.2.3-.2.5,0,.3.1.5.3.6.2.2.4.3.7.4s.6.2,1,.3.8.2,1.2.2c.4.1.8.2,1.2.3.4.1.7.3,1,.5s.5.5.7.8.3.7.3,1.2c0,.6-.1,1.1-.4,1.5-.3.4-.6.7-1,1-.4.2-.9.4-1.4.6s-1,.2-1.5.2c-.6,0-1.2-.1-1.7-.2s-1-.4-1.4-.6c-.4-.3-.7-.6-.9-1.1-.2-.4-.3-.9-.3-1.5l2,.1h0Z"/><path class="cls-2" d="M140.6,344.6h2.2v2h-2.2v-2ZM140.6,348.3h2.2v9.8h-2.2v-9.8Z"/><path class="cls-2" d="M152.9,358.4c-.8,0-1.5-.1-2.1-.4s-1.1-.6-1.6-1.1c-.4-.5-.8-1-1-1.6s-.3-1.3-.3-2.1.1-1.4.3-2.1.6-1.2,1-1.6c.4-.5.9-.8,1.6-1.1.6-.3,1.3-.4,2.1-.4s1.5.1,2.1.4,1.1.6,1.6,1.1c.4.5.8,1,1,1.6s.3,1.3.3,2.1c0,.7-.1,1.5-.3,2.1s-.6,1.2-1,1.6c-.4.5-.9.8-1.6,1.1-.6.3-1.3.4-2.1.4ZM152.9,356.7c.5,0,.9-.1,1.3-.3.4-.2.6-.5.9-.8.2-.3.4-.7.5-1.1s.2-.8.2-1.3-.1-.8-.2-1.3-.3-.8-.5-1.1c-.2-.3-.5-.6-.9-.8s-.8-.3-1.3-.3-.9.1-1.3.3-.6.5-.9.8c-.2.3-.4.7-.5,1.1s-.2.8-.2,1.3c0,.4.1.9.2,1.3.1.4.3.8.5,1.1.2.3.5.6.9.8s.9.3,1.3.3Z"/><path class="cls-2" d="M163,348.3h2.1v1.4h0c.3-.5.8-1,1.3-1.3s1.1-.5,1.8-.5c1.1,0,1.9.3,2.6.8.6.6.9,1.4.9,2.5v6.8h-2.2v-6c0-.8-.2-1.3-.5-1.7-.3-.4-.8-.5-1.4-.5-.4,0-.7.1-1,.2s-.5.3-.7.5-.4.5-.5.8-.2.6-.2,1v5.8h-2.2v-9.8h0Z"/><path class="cls-2" d="M185.9,344.6h2.4v7.9c0,.5,0,.9.1,1.4s.2.9.4,1.3.5.7.9.9c.4.2,1,.4,1.8.4s1.4-.1,1.8-.4c.4-.2.7-.6.9-.9.2-.4.3-.8.4-1.3.1-.5.1-.9.1-1.4v-7.9h2.4v8.7c0,.9-.1,1.6-.4,2.3-.3.6-.6,1.2-1.1,1.6s-1.1.8-1.8,1-1.4.3-2.3.3-1.6-.1-2.3-.3c-.7-.2-1.3-.5-1.8-1-.5-.4-.9-1-1.1-1.6-.3-.6-.4-1.4-.4-2.3v-8.7h0Z"/><path class="cls-2" d="M202.8,348.3h2.1v1.3h0c.3-.6.7-1,1.3-1.2.5-.2,1.1-.4,1.8-.4.8,0,1.4.1,2,.4s1.1.6,1.4,1.1c.4.5.7,1,.9,1.7.2.6.3,1.3.3,2s-.1,1.3-.3,1.9-.4,1.2-.8,1.6-.8.9-1.3,1.1c-.5.3-1.2.4-1.9.4-.3,0-.6,0-.9-.1s-.6-.1-.9-.3-.6-.3-.8-.5-.4-.4-.6-.7h0v4.9h-2.2l-.1-13.2h0ZM210.4,353.3c0-.4-.1-.9-.2-1.3s-.3-.8-.5-1.1-.5-.6-.9-.8c-.3-.2-.7-.3-1.2-.3-.9,0-1.6.3-2.1.9s-.7,1.5-.7,2.5c0,.5.1.9.2,1.4.1.4.3.8.5,1.1.2.3.5.5.9.7.3.2.7.3,1.2.3s.9-.1,1.3-.3c.3-.2.6-.5.9-.8s.4-.7.5-1.1c.1-.4.1-.8.1-1.2h0Z"/><path class="cls-2" d="M226.8,357.6c0,1.5-.4,2.6-1.2,3.3s-2,1.1-3.6,1.1c-.5,0-1,0-1.5-.1s-1-.3-1.4-.5-.8-.6-1-1-.4-.9-.5-1.5h2.2c.1.3.2.6.3.7.1.2.3.3.5.4s.4.2.7.2h.8c.9,0,1.5-.2,1.9-.6s.6-1.1.6-1.9v-1.5h0c-.3.5-.7,1-1.2,1.3s-1.1.5-1.7.5c-.8,0-1.5-.1-2-.4s-1-.6-1.4-1.1-.6-1-.8-1.6-.2-1.3-.2-2,.1-1.3.3-1.9.5-1.1.9-1.6.9-.8,1.4-1.1c.6-.3,1.2-.4,1.9-.4.6,0,1.2.1,1.7.4s.9.7,1.2,1.2h0v-1.4h2.2l-.1,9.5h0ZM221.9,356.5c.5,0,.9-.1,1.2-.3s.6-.5.8-.8.4-.7.5-1.1.1-.8.1-1.2-.1-.8-.1-1.2-.3-.7-.5-1-.5-.6-.8-.7c-.3-.2-.7-.3-1.2-.3s-.9.1-1.2.3c-.3.2-.6.5-.8.8s-.4.7-.4,1.1-.1.8-.1,1.2.1.8.1,1.2c.1.4.3.7.5,1s.5.5.8.7.7.2,1.1.3h0Z"/><path class="cls-2" d="M232.2,348.3h2v1.9h0c.1-.3.2-.5.4-.8s.4-.5.7-.7.6-.4.9-.5c.3-.1.6-.2,1-.2h.8v2.1c-.1,0-.3,0-.5-.1h-.5c-.4,0-.7.1-1,.2-.3.2-.6.4-.9.7-.2.3-.4.6-.6,1.1-.1.4-.2.9-.2,1.4v4.7h-2.2l.1-9.8h0Z"/><path class="cls-2" d="M250.4,356c0,.3,0,.5.1.6s.2.2.4.2h.5v1.5c-.1,0-.2.1-.3.1s-.2.1-.4.1c-.1,0-.2,0-.4.1h-.3c-.4,0-.8-.1-1.1-.3-.3-.2-.5-.5-.6-.9-.4.4-1,.7-1.6.9s-1.2.3-1.8.3c-.4,0-.9-.1-1.3-.2s-.8-.3-1.1-.5-.6-.5-.7-.9c-.2-.4-.3-.8-.3-1.3,0-.6.1-1.1.3-1.5s.5-.7.9-.9c.4-.2.8-.4,1.2-.5s.9-.2,1.4-.2c.4-.1.8-.1,1.1-.2s.7-.1.9-.2.5-.2.6-.4.2-.4.2-.7-.1-.5-.2-.7c-.1-.2-.3-.3-.5-.4s-.4-.2-.7-.2c-.2,0-.5-.1-.7-.1-.6,0-1.1.1-1.5.4s-.6.6-.7,1.2h-1.8c0-.6.2-1.2.5-1.6s.6-.8,1-1,.9-.4,1.4-.5,1.1-.1,1.6-.1,1,0,1.4.1c.5.1.9.3,1.3.5.4.2.7.5.9.9s.3.8.3,1.3v5.1h0ZM248.3,353.2c-.3.2-.7.4-1.2.4s-1,.1-1.4.2c-.2,0-.4.1-.7.2s-.4.2-.6.3c-.2.1-.3.3-.4.5-.1.2-.1.4-.1.7,0,.2.1.4.2.6s.3.3.5.4.4.2.6.2.4.1.6.1.5,0,.8-.1.5-.2.8-.3c.2-.1.4-.3.6-.6.2-.2.2-.5.2-.9l.1-1.7h0Z"/><path class="cls-2" d="M265.3,358.2h-2v-1.3h0c-.3.6-.7,1-1.3,1.2s-1.1.4-1.8.4c-.8,0-1.5-.1-2-.4-.6-.3-1.1-.6-1.4-1.1s-.7-1-.9-1.7c-.2-.6-.3-1.3-.3-2.1,0-.9.1-1.7.4-2.3.2-.6.6-1.2,1-1.6s.9-.7,1.4-.9,1-.3,1.6-.3c.3,0,.6,0,.9.1s.6.1.9.3.6.3.8.5c.2.2.5.4.6.7h0v-5h2.2l-.1,13.5h0ZM257.7,353.4c0,.4,0,.8.2,1.2.1.4.3.8.5,1.1.2.3.5.6.9.8.3.2.8.3,1.2.3s.9-.1,1.2-.3c.4-.2.6-.5.9-.8.2-.3.4-.7.5-1.1s.2-.8.2-1.3c0-1.1-.2-1.9-.7-2.5s-1.1-.9-2-.9c-.5,0-.9.1-1.3.3s-.6.5-.9.8c-.2.3-.4.7-.5,1.1-.1.4-.2.8-.2,1.3h0Z"/><path class="cls-2" d="M272.6,353.8c0,.4,0,.8.2,1.1.1.4.3.7.5.9.2.3.5.5.8.6.3.2.7.2,1.2.2.6,0,1.1-.1,1.5-.4s.7-.7.9-1.2h2.1c-.1.5-.3,1-.6,1.4-.3.4-.6.8-1,1.1-.4.3-.8.5-1.3.6-.5.2-1,.2-1.5.2-.8,0-1.5-.1-2-.4-.6-.2-1.1-.6-1.5-1.1s-.7-1-.9-1.6c-.2-.6-.3-1.3-.3-2.1,0-.7.1-1.4.3-2s.5-1.2,1-1.7c.4-.5.9-.9,1.5-1.1.6-.3,1.2-.4,2-.4s1.5.2,2.1.5,1.1.8,1.5,1.3.7,1.2.9,1.8c.2.7.2,1.4.1,2.1l-7.5.2h0ZM277.7,352.4c0-.3-.1-.7-.2-1s-.3-.6-.5-.8c-.2-.2-.5-.4-.8-.6-.3-.1-.6-.2-1-.2s-.7.1-1,.2-.6.3-.8.6-.4.5-.5.8-.2.7-.2,1h5Z"/><path class="cls-2" d="M293.6,344.6h3.4l3.8,10.6h0l3.6-10.6h3.3v13.6h-2.3v-10.5h0l-3.8,10.5h-2l-3.8-10.5h0v10.5h-2.3v-13.6h.1Z"/><path class="cls-2" d="M318,358.4c-.8,0-1.5-.1-2.1-.4s-1.1-.6-1.6-1.1c-.4-.5-.8-1-1-1.6s-.3-1.3-.3-2.1.1-1.4.3-2.1.5-1.2,1-1.6c.4-.5,1-.8,1.6-1.1.6-.3,1.3-.4,2.1-.4s1.5.1,2.1.4,1.1.6,1.6,1.1c.4.5.8,1,1,1.6s.3,1.3.3,2.1c0,.7-.1,1.5-.3,2.1-.2.6-.5,1.2-1,1.6-.4.5-1,.8-1.6,1.1-.6.3-1.3.4-2.1.4ZM318,356.7c.5,0,.9-.1,1.3-.3.4-.2.6-.5.9-.8.2-.3.4-.7.5-1.1s.2-.8.2-1.3,0-.8-.2-1.3c-.1-.4-.3-.8-.5-1.1-.2-.3-.5-.6-.9-.8s-.8-.3-1.3-.3-.9.1-1.3.3-.6.5-.9.8c-.2.3-.4.7-.5,1.1s-.2.8-.2,1.3c0,.4,0,.9.2,1.3.1.4.3.8.5,1.1.2.3.5.6.9.8s.9.3,1.3.3Z"/><path class="cls-2" d="M337.4,358.2h-2v-1.3h0c-.3.6-.7,1-1.3,1.2s-1.1.4-1.8.4c-.8,0-1.5-.1-2-.4-.6-.3-1.1-.6-1.4-1.1s-.7-1-.9-1.7c-.2-.6-.3-1.3-.3-2.1,0-.9.1-1.7.4-2.3.2-.6.6-1.2,1-1.6s.9-.7,1.4-.9,1-.3,1.6-.3c.3,0,.6,0,.9.1s.6.1.9.3.6.3.8.5c.2.2.5.4.6.7h0v-5h2.2l-.1,13.5h0ZM329.8,353.4c0,.4,0,.8.2,1.2.1.4.3.8.5,1.1.2.3.5.6.9.8.3.2.8.3,1.2.3s.9-.1,1.2-.3c.4-.2.6-.5.9-.8.2-.3.4-.7.5-1.1s.2-.8.2-1.3c0-1.1-.2-1.9-.7-2.5s-1.1-.9-2-.9c-.5,0-.9.1-1.3.3s-.6.5-.9.8c-.2.3-.4.7-.5,1.1-.1.4-.2.8-.2,1.3h0Z"/><path class="cls-2" d="M351.6,358.2h-2.1v-1.4h0c-.3.5-.7.9-1.2,1.2-.5.3-1.1.5-1.6.5-1.3,0-2.2-.3-2.8-1-.6-.6-.9-1.6-.9-2.9v-6.2h2.2v6c0,.9.2,1.5.5,1.8.3.4.8.5,1.4.5.5,0,.8-.1,1.1-.2.3-.1.5-.3.7-.6s.3-.5.4-.9.1-.7.1-1.1v-5.7h2.2v10h0Z"/><path class="cls-2" d="M357.2,344.6h2.2v13.6h-2.2v-13.6Z"/><path class="cls-2" d="M373.3,356c0,.3,0,.5.1.6s.2.2.4.2h.5v1.5c-.1,0-.2.1-.3.1s-.2.1-.4.1c-.1,0-.2,0-.4.1h-.3c-.4,0-.8-.1-1.1-.3-.3-.2-.5-.5-.6-.9-.4.4-1,.7-1.6.9s-1.2.3-1.8.3c-.4,0-.9-.1-1.3-.2s-.8-.3-1.1-.5-.6-.5-.7-.9c-.2-.4-.3-.8-.3-1.3,0-.6.1-1.1.3-1.5s.5-.7.9-.9c.4-.2.8-.4,1.2-.5s.9-.2,1.4-.2c.4-.1.8-.1,1.1-.2s.7-.1.9-.2.5-.2.6-.4.2-.4.2-.7-.1-.5-.2-.7-.3-.3-.5-.4-.4-.2-.7-.2c-.2,0-.5-.1-.7-.1-.6,0-1.1.1-1.5.4s-.6.6-.7,1.2h-2.2c0-.6.2-1.2.5-1.6s.6-.8,1-1,.9-.4,1.4-.5,1-.1,1.6-.1c.5,0,1,0,1.4.1s.9.3,1.3.5.7.5.9.9c.2.4.3.8.3,1.3l.4,5.1h0ZM371.1,353.2c-.3.2-.7.4-1.2.4s-1,.1-1.5.2c-.2,0-.5.1-.7.2s-.4.2-.6.3c-.2.1-.3.3-.4.5s-.1.4-.1.7c0,.2.1.4.2.6s.3.3.5.4.4.2.6.2.5.1.6.1c.2,0,.5,0,.8-.1s.5-.2.8-.3c.2-.1.5-.3.6-.6.2-.2.2-.5.2-.9l.2-1.7h0Z"/><path class="cls-2" d="M378.9,348.3h2v1.9h0c.1-.3.2-.5.4-.8s.4-.5.7-.7c.3-.2.5-.4.9-.5.3-.1.6-.2,1-.2h.8v2.1c-.1,0-.3,0-.5-.1h-.5c-.4,0-.7.1-1,.2-.3.2-.6.4-.9.7-.2.3-.4.6-.6,1.1-.1.4-.2.9-.2,1.4v4.7h-2.2l.1-9.8h0Z"/><path class="cls-2" d="M397.7,344.6h9.8v2h-7.4v3.6h6.9v1.9h-6.9v4h7.5v2.1h-9.9v-13.6h0Z"/><path class="cls-2" d="M412.7,348.3h2v1.4h0c.3-.5.8-1,1.3-1.3s1.1-.5,1.8-.5c1.1,0,1.9.3,2.5.8s.9,1.4.9,2.5v6.8h-2.2v-6c0-.8-.2-1.3-.5-1.7-.3-.4-.8-.5-1.4-.5-.4,0-.7.1-1,.2s-.5.3-.7.5-.4.5-.5.8-.2.6-.2,1v5.8h-2.2l.2-9.8h0Z"/><path class="cls-2" d="M433.5,351.6c-.1-.6-.3-1.1-.7-1.4s-.9-.5-1.5-.5c-.3,0-.6.1-.9.1-.3.1-.6.3-.9.5-.3.3-.5.6-.7,1.1s-.3,1.1-.3,1.8c0,.4,0,.8.1,1.2.1.4.2.8.5,1.1.2.3.5.6.8.8s.7.3,1.2.3c.6,0,1.2-.2,1.6-.6s.7-.9.8-1.7h2.2c-.2,1.3-.7,2.3-1.5,2.9-.8.7-1.8,1-3,1-.8,0-1.5-.1-2-.4-.6-.3-1.1-.6-1.5-1.1s-.7-1-.9-1.6c-.2-.6-.3-1.3-.3-2s.1-1.4.3-2.1.5-1.2.9-1.7.9-.9,1.5-1.1c.6-.3,1.3-.4,2.1-.4.6,0,1.1.1,1.6.2s1,.4,1.4.7c.4.3.7.7,1,1.1s.4,1,.5,1.6l-2.3.2h0Z"/><path class="cls-2" d="M440.8,344.6h2.2v13.6h-2.2v-13.6Z"/><path class="cls-2" d="M453.1,358.4c-.8,0-1.5-.1-2.1-.4s-1.1-.6-1.6-1.1c-.4-.5-.8-1-1-1.6s-.3-1.3-.3-2.1.1-1.4.3-2.1.5-1.2,1-1.6c.4-.5,1-.8,1.6-1.1.6-.3,1.3-.4,2.1-.4s1.5.1,2.1.4,1.1.6,1.6,1.1c.4.5.8,1,1,1.6s.3,1.3.3,2.1c0,.7-.1,1.5-.3,2.1-.2.6-.5,1.2-1,1.6-.4.5-1,.8-1.6,1.1-.6.3-1.3.4-2.1.4ZM453.1,356.7c.5,0,.9-.1,1.3-.3.4-.2.6-.5.9-.8.2-.3.4-.7.5-1.1s.2-.8.2-1.3,0-.8-.2-1.3c-.1-.4-.3-.8-.5-1.1-.2-.3-.5-.6-.9-.8s-.8-.3-1.3-.3-.9.1-1.3.3-.6.5-.9.8c-.2.3-.4.7-.5,1.1s-.2.8-.2,1.3c0,.4,0,.9.2,1.3.1.4.3.8.5,1.1.2.3.5.6.9.8s.8.3,1.3.3Z"/><path class="cls-2" d="M464.8,355c.1.6.3,1.1.7,1.3s.9.4,1.5.4c.2,0,.4,0,.7-.1.3,0,.5-.1.7-.2s.4-.2.6-.4.2-.4.2-.7-.1-.5-.3-.7c-.2-.2-.4-.3-.7-.4-.3-.1-.6-.2-1-.3-.4-.1-.8-.2-1.2-.2-.4-.1-.8-.2-1.2-.3-.4-.1-.7-.3-1-.5s-.5-.5-.7-.8-.3-.8-.3-1.2c0-.5.1-1,.4-1.3s.6-.6,1-.9.8-.4,1.3-.5,1-.1,1.4-.1c.5,0,1,.1,1.5.2s.9.3,1.3.5.7.6.9.9c.2.4.4.8.5,1.4h-2.3c-.1-.5-.3-.9-.7-1s-.8-.3-1.3-.3h-.5c-.2,0-.4.1-.6.1-.2.1-.3.2-.5.3-.1.1-.2.3-.2.5,0,.3.1.5.3.6.2.2.4.3.7.4s.6.2,1,.3c.4.1.8.2,1.2.2.4.1.8.2,1.2.3.4.1.7.3,1,.5s.5.5.7.8.3.7.3,1.2c0,.6-.1,1.1-.4,1.5s-.6.7-1,1c-.4.2-.9.4-1.4.6-.5.1-1,.2-1.5.2-.6,0-1.2-.1-1.7-.2s-1-.4-1.4-.6c-.4-.3-.7-.6-.9-1.1-.2-.4-.3-.9-.4-1.5l2.1.1h0Z"/><path class="cls-2" d="M484.9,358.2h-2.1v-1.4h0c-.3.5-.7.9-1.2,1.2-.5.3-1.1.5-1.6.5-1.3,0-2.2-.3-2.8-1-.6-.6-.9-1.6-.9-2.9v-6.2h2.2v6c0,.9.2,1.5.5,1.8.3.4.8.5,1.4.5.5,0,.8-.1,1.1-.2.3-.1.5-.3.7-.6s.3-.5.4-.9.1-.7.1-1.1v-5.7h2.2v10h0Z"/><path class="cls-2" d="M490.5,348.3h2v1.9h0c.1-.3.2-.5.4-.8s.4-.5.7-.7c.3-.2.5-.4.9-.5.3-.1.6-.2,1-.2h.8v2.1c-.1,0-.3,0-.5-.1h-.5c-.4,0-.7.1-1,.2-.3.2-.6.4-.9.7-.2.3-.4.6-.6,1.1-.1.4-.2.9-.2,1.4v4.7h-2.2l.1-9.8h0Z"/><path class="cls-2" d="M502.2,353.8c0,.4,0,.8.2,1.1.1.4.3.7.5.9.2.3.5.5.8.6.3.2.7.2,1.2.2.6,0,1.1-.1,1.5-.4s.7-.7.9-1.2h2.1c-.1.5-.3,1-.6,1.4-.3.4-.6.8-1,1.1-.4.3-.8.5-1.3.6-.5.2-1,.2-1.5.2-.8,0-1.5-.1-2-.4-.6-.2-1.1-.6-1.5-1.1s-.7-1-.9-1.6c-.2-.6-.3-1.3-.3-2.1,0-.7.1-1.4.3-2s.5-1.2,1-1.7c.4-.5.9-.9,1.5-1.1.6-.3,1.2-.4,2-.4s1.5.2,2.1.5,1.1.8,1.5,1.3.7,1.2.9,1.8c.2.7.2,1.4.1,2.1l-7.5.2h0ZM507.2,352.4c0-.3-.1-.7-.2-1s-.3-.6-.5-.8c-.2-.2-.5-.4-.8-.6-.3-.1-.6-.2-1-.2s-.7.1-1,.2-.6.3-.8.6-.4.5-.5.8-.2.7-.2,1h5Z"/><path class="cls-1" d="M155.6,272.9c-.6.7-1.7,1.4-2.8,1.9-2-.5-4.5-2.4-6.5-1.7-3.3,2.9-7.6,10-9.4,18.2-1.7,7.3-1.3,12.3-.1,15.7,1,2.9,3,4.4,5.3,3.6,4.4-1.6,8.1-7,10.4-11.6,1.1-2.1,2-5,2.4-7.6.8-.7,1.9-1.6,2.7-2,1.1.2,2.2.5,2.8,1.1-.7,4.7-1,10-1,13.4,0,4.3.2,8.7.8,11.6-.7,1-2,2.1-3.2,2.6-.7-.1-1.9-.5-2.7-1.1-.1-3.7.2-10.1.4-13.9,0-.4-.7-.4-.7-.2-2.9,4.9-8.7,12.6-14.4,14.7-3.1,1.1-5.8-.3-7.8-5.8-4.1-11.2,2-30,10.9-39.8,1.4-1.4,2.8-2.6,5-3.8,3.5-1,6.4-.3,8.1.9.2,1.4.1,2.9-.2,3.8h0Z"/><path class="cls-1" d="M175,277.1c.9-1.9,2.4-3.7,3.4-4.1,1.5,0,3,.8,4.1,3.6,3.4,9.4-2.4,26.3-9.4,28.9-2.8,1-5.2-.7-6.4-4-3.1-8.4,2.2-21.1,5-24.7.8-.3,2-.3,3.3.3ZM170.9,296.7c1.2,3.2,2.4,3.4,4.2,2.7,3.1-1.1,5.8-12.1,3.6-18.2-.8-2.3-2.5-3.3-4.3-3.2-3.9,5.1-5.3,13.7-3.5,18.7h0Z"/><path class="cls-1" d="M190.8,294.8c-1.2-3.4-1.3-9.7-1.1-18.7,0-.6-.2-1.9-.8-2.8.7-1.2,2.2-2.8,3.4-3.5.7-.1,2,.6,2.6,1.4-1.5,11-1.1,15.7-.2,18.2.5,1.3,1.1,1.9,1.8,1.7.9-.3,2.7-2.4,3.8-4.5.5.4,1.3,1.4,1.5,2-3.6,5.5-6.5,8.3-7.9,8.8-1.2.4-2.2-.1-3.1-2.6h0ZM196,252.4c.3.8.3,4.1-2.4,6.4-1.9-.1-3.4-1.3-3.7-2.1-.2-.4.3-5,3.1-6.3,1.3.3,2.9,1.7,3,2h0Z"/><path class="cls-1" d="M204.8,265.1c1.2-.6,2.1-1,3.4-1.4.3.5.5,1,.7,1.4.8,2.2,1.5,7.4,1.4,13.9,0,.5.6.3.9,0,5.4-13,10.2-20.4,12.6-21.3,1.2-.4,2,.8,2.7,2.6,1.3,3.7-.1,13.5,1.2,17.2.5,1.3.9,1.9,3,2.2.2.8.1,1.8-.1,2.6-.9.9-3.1,2.8-4.3,3.2-1.2.6-1.8-.1-2.5-2-1.6-4.3-.5-13.9-1.4-16.2-.4-1.1-.6-1-.9-.9-1.4.5-6.2,8.7-8.9,17.2-.4,1.4-1,4.1-1.3,5.2-.7,1-2,2.1-3.1,2.5-.8.3-1.8,0-2.5,0,.4-7.3.3-16.3-.9-19.5-.5-1.2-1-2.4-2-3.1.4-1.4,1.1-2.5,2-3.6h0Z"/><path class="cls-1" d="M249.2,250.3c.4-1,1.4-2.2,2.2-2.9.8.2,1.8.3,2.7,1.1-.9,3.5.7,18.3.9,31.5.2,12.1-5.3,24-12.3,27.6-2.3.8-6.7-.3-9-1-.1-.6-.3-1.8-.1-2.6.4-.7,1.4-1.9,2.9-2.8,1.3.8,5.7,2.7,7.6,2.1,3.7-3.5,6-8.1,6.2-21.7-.1-5-.4-13.7-.6-17.3-.1-.6-.6-.5-.7-.1-2.6,6.8-6.4,14.6-10.2,16-.7.3-2-.2-2.9-2.5-3.7-10.2,3.6-26.5,8.4-28.2,1-.4,3.7.2,4.9.8h0ZM240,270.9c.3.9.9,1.6,1.5,1.4,1.9-.7,7-11.6,7-17.3-.9-.7-3.3-1.9-4.4-1.5-2.2.8-6.3,11.4-4.1,17.4h0Z"/><path class="cls-1" d="M301.8,253.1c-5.3,6.3-10,9.2-16.7,11.6-1.1.4-3.1.8-3.8.8-1.3-.2-3.4-1-4.7-2.3-.5-3.4-.5-7.6-.2-18.6.2-6.9,1-13.4,1.6-17.8-2.3-.1-5-.2-8.1.1-.4-1.1,1.4-4.3,3.2-5.1,4.1-.2,12.1.2,17.1,1.1,7.8,1.5,15.5,5.2,17.7,11.2,2.2,6.4-1,12.9-6.1,19h0ZM283,227.1c-1.1,5.1-1.7,11.2-1.8,16.4-.1,8.5.3,14,1,16.2.9.4,1.7.6,2.4.6,1-.1,2.3-.3,3.7-.8,3-1.1,6.6-3.4,10.3-7.9,3.8-4.8,4.9-10.4,3.3-14.7-2-5.5-8.5-9-18.9-9.8h0Z"/><path class="cls-1" d="M328.8,220.4c.6-.8,1.3-1.5,2-2.3.8.1,1.5-.1,2.4.4-.5,6.3-1.3,16.4.5,21.4.4,1.1,1,1.6,1.6,1.4.8-.3,2.2-2.1,3.2-3.7.5.4,1.1,1.3,1.4,2-1.5,2.6-5.3,7.8-7.5,8.6-.6.2-1.8-.2-2.4-2-.6-1.3-1.4-5.6-1.3-8.7,0-.3-.6-.4-.8.1-3.1,7.4-7,13.9-10.6,15.2-.9.3-2.1-.3-2.9-2.3-2.1-5.8-1.3-15.5,5.2-25,1.6-2.2,3.8-4.6,5.4-5.2.9-.5,2.5-.2,3.8.1h0ZM319,244c.3.8.6,1.3,1.1,1.1,2.5-.9,6.6-8.4,8-19.9-.8-.8-2.9-1.5-3.5-1.3-2.9,1.1-8,13.5-5.6,20.1h0Z"/><path class="cls-1" d="M349.7,232.6c-.2,1-.8,4.6-.9,7.3-.4.8-1.6,1.8-2.4,2.6-1,.3-2.1.2-2.9-.1.5-8.2.4-17-.6-19.9-.8-2.2-1.8-3.6-2.4-4.2.6-2.3,1.7-4,4.5-4.9.8,1,1.1,1.7,1.5,3.1.5,1.5,1.1,4.4,1.2,8-.1.5.7.4.8.2,3.4-10.7,6.8-17.5,9-18.3,1.1-.1,2.9.1,4.2.6.3.9.7,2.7.6,3.8-.6.9-1.8,2.1-2.6,2.4-.7,0-1.7-.2-2.7-.8-1.5.9-4.7,7.8-7.3,20.2h0Z"/><path class="cls-1" d="M372,215.5c4.5-4.5,8.2-10.9,9.2-15.5,1-.4,1.7-.4,2.5-.5.6.3,1.3,1.6,1.6,2.4-.8,2.4-6.8,10.9-9.3,13.6-.2.2-.1.6.1.8,3.6,2.8,9.2,6.2,13,6.3.2.6.3,1.7.2,2.1-.8,1.2-2.7,2.6-4.1,3.2-3.7-.9-10.6-6-14-8.8-.1,6.3.3,10.2.5,12.1-.8,1.3-1.9,2.6-3.4,3.4-.7,0-2.2-.4-2.6-1,.5-2.5,1.2-10.5,1.2-26.4,0-13.1-.5-24.4-1.7-25.8.9-1.2,2.5-2.9,3.8-3.5.7.2,1.7.9,2.6,1.8-.4,9-.4,22.9-.5,35.7.1.4.5.5.9.1h0Z"/></svg>