<?xml version="1.0" encoding="UTF-8"?><svg id="_レイヤー_1" xmlns="http://www.w3.org/2000/svg" viewBox="0 0 540 200"><defs><style>.cls-1,.cls-2{stroke-width:0px;}.cls-2{fill:#cf0;}</style></defs><path class="cls-1" d="M30,38.07h24.96l23.69,40,23.55-40h24.82l-37.59,62.41v38.87h-22.27v-39.43L30,38.07Z"/><path class="cls-1" d="M231.28,131.62c-7.66,6.67-18.25,10-31.77,10s-24.33-3.31-31.84-9.93c-7.52-6.62-11.28-16.83-11.28-30.64v-62.98h22.27v62.98c0,2.74.23,5.44.71,8.09.47,2.65,1.46,4.99,2.98,7.02,1.51,2.03,3.62,3.69,6.31,4.96,2.7,1.28,6.31,1.92,10.85,1.92,7.94,0,13.43-1.77,16.45-5.32,3.02-3.55,4.54-9.1,4.54-16.67v-62.98h22.27v62.98c0,13.71-3.83,23.9-11.49,30.57Z"/><path class="cls-1" d="M314.54,38.07l23.69,69.65h.28l22.41-69.65h31.35v101.28h-20.85v-71.77h-.28l-24.82,71.77h-17.16l-24.82-71.06h-.28v71.06h-20.85V38.07h31.35Z"/><path class="cls-1" d="M508.87,38.07v18.72h-53.48v21.7h49.08v17.3h-49.08v24.82h54.61v18.72h-76.88V38.07h75.74Z"/><path class="cls-1" d="M36.12,182.84l-5.1-8.26h2.76l3.6,6.09,3.54-6.09h2.66l-5.08,8.26v5.33h-2.38v-5.33Z"/><path class="cls-1" d="M56.52,188.17h-2.13v-1.37h-.04c-.27.49-.66.89-1.19,1.19s-1.06.45-1.61.45c-1.29,0-2.23-.32-2.81-.96-.58-.64-.87-1.61-.87-2.9v-6.24h2.17v6.03c0,.86.16,1.47.49,1.83s.79.53,1.39.53c.46,0,.84-.07,1.14-.21.31-.14.55-.33.74-.56s.33-.52.41-.85.12-.69.12-1.07v-5.71h2.17v9.84Z"/><path class="cls-1" d="M62.07,178.33h2.05v1.37h.06c.16-.24.34-.46.53-.67s.4-.37.64-.51.5-.25.81-.33c.31-.08.65-.12,1.05-.12.6,0,1.15.13,1.67.4.51.27.88.68,1.09,1.24.37-.51.79-.91,1.28-1.2.48-.29,1.08-.44,1.81-.44,1.04,0,1.85.25,2.43.76.58.51.87,1.36.87,2.55v6.79h-2.17v-5.75c0-.39-.01-.75-.04-1.08-.03-.32-.1-.6-.22-.84s-.3-.41-.54-.54c-.24-.13-.57-.19-.99-.19-.74,0-1.27.23-1.6.68-.33.46-.49,1.1-.49,1.94v5.77h-2.17v-6.32c0-.69-.12-1.2-.37-1.55-.25-.35-.7-.52-1.36-.52-.28,0-.55.06-.81.17s-.49.28-.68.49-.36.48-.48.8c-.12.32-.18.68-.18,1.08v5.84h-2.17v-9.84Z"/><path class="cls-1" d="M83.59,183.81c0,.38.05.75.16,1.1.11.36.27.67.49.93.21.27.49.48.82.64s.72.24,1.18.24c.63,0,1.14-.14,1.53-.41.39-.27.68-.68.87-1.23h2.06c-.11.53-.31,1.01-.59,1.43-.28.42-.62.77-1.01,1.06-.39.29-.83.5-1.32.65s-1,.22-1.53.22c-.77,0-1.46-.13-2.05-.38-.6-.25-1.1-.61-1.51-1.07s-.72-1-.93-1.64c-.21-.63-.31-1.33-.31-2.09,0-.7.11-1.36.33-1.99s.54-1.18.95-1.66.91-.85,1.49-1.13c.58-.28,1.24-.42,1.98-.42.77,0,1.47.16,2.08.49.62.32,1.13.75,1.53,1.28s.7,1.15.89,1.84c.18.69.23,1.41.14,2.14h-7.23ZM88.66,182.38c-.03-.34-.1-.67-.22-.99-.12-.32-.29-.59-.49-.83-.21-.23-.46-.42-.76-.57-.3-.15-.63-.22-1-.22s-.73.07-1.04.2-.58.32-.8.55-.4.51-.53.83c-.13.32-.21.66-.22,1.03h5.06Z"/><path class="cls-1" d="M95.54,181.96h5.54v2.05h-5.54v-2.05Z"/><path class="cls-1" d="M105.46,178.33h2.36l2.49,7.55h.04l2.4-7.55h2.25l-3.52,9.84h-2.44l-3.58-9.84Z"/><path class="cls-1" d="M119.63,174.58h2.17v2.05h-2.17v-2.05ZM119.63,178.33h2.17v9.84h-2.17v-9.84Z"/><path class="cls-1" d="M129.07,185.01c.06.63.3,1.08.72,1.33.42.25.92.38,1.5.38.2,0,.43-.02.69-.05.26-.03.5-.09.73-.18.23-.09.42-.22.56-.39s.21-.4.2-.68c-.01-.28-.11-.51-.31-.69-.19-.18-.43-.32-.73-.43-.3-.11-.64-.2-1.02-.28-.38-.08-.77-.16-1.16-.25-.41-.09-.8-.2-1.17-.32-.37-.13-.71-.3-1.01-.51-.3-.22-.54-.49-.71-.83s-.27-.75-.27-1.25c0-.53.13-.98.39-1.34.26-.36.59-.65.99-.87s.84-.38,1.33-.47c.49-.09.95-.13,1.4-.13.51,0,.99.05,1.46.16.46.11.88.28,1.26.52.37.24.69.56.93.94.25.39.4.85.47,1.4h-2.26c-.1-.52-.34-.87-.71-1.05s-.8-.27-1.28-.27c-.15,0-.33.01-.54.04-.21.03-.41.07-.59.14-.18.07-.34.17-.47.31-.13.13-.19.31-.19.52,0,.27.09.48.28.65.18.17.42.3.72.41.3.11.64.2,1.02.28.38.08.77.16,1.18.25.39.09.78.2,1.16.32.38.13.72.3,1.02.51s.54.49.72.82.28.74.28,1.22c0,.58-.13,1.08-.4,1.49-.27.41-.61.74-1.04.99-.42.25-.9.44-1.42.55-.52.11-1.03.17-1.54.17-.62,0-1.2-.07-1.72-.21s-.98-.35-1.37-.64c-.39-.28-.69-.64-.91-1.07-.22-.42-.34-.93-.35-1.51h2.17Z"/><path class="cls-1" d="M140.64,174.58h2.17v2.05h-2.17v-2.05ZM140.64,178.33h2.17v9.84h-2.17v-9.84Z"/><path class="cls-1" d="M152.95,188.43c-.79,0-1.49-.13-2.1-.39-.62-.26-1.13-.62-1.56-1.08-.42-.46-.75-1-.97-1.64-.22-.63-.33-1.33-.33-2.09s.11-1.44.33-2.07.55-1.18.97-1.64c.43-.46.95-.82,1.56-1.08.62-.26,1.32-.39,2.1-.39s1.49.13,2.1.39c.62.26,1.13.62,1.56,1.08.42.46.75,1,.97,1.64s.33,1.33.33,2.07-.11,1.46-.33,2.09c-.22.64-.55,1.18-.97,1.64-.43.46-.95.82-1.56,1.08-.62.26-1.32.39-2.1.39ZM152.95,186.72c.48,0,.9-.1,1.26-.31.36-.2.65-.47.88-.8.23-.33.4-.7.5-1.11.11-.41.16-.83.16-1.27s-.05-.84-.16-1.26c-.11-.42-.28-.79-.5-1.11-.23-.32-.52-.59-.88-.79s-.77-.3-1.26-.3-.9.1-1.26.3-.65.47-.88.79c-.23.32-.4.69-.5,1.11-.11.42-.16.84-.16,1.26s.05.85.16,1.27c.11.41.28.78.5,1.11.23.33.52.6.88.8.36.2.77.31,1.26.31Z"/><path class="cls-1" d="M163,178.33h2.05v1.45l.04.04c.33-.54.76-.97,1.29-1.28s1.12-.47,1.77-.47c1.08,0,1.93.28,2.55.84.62.56.93,1.4.93,2.51v6.75h-2.17v-6.18c-.03-.77-.19-1.33-.49-1.68-.31-.35-.78-.52-1.43-.52-.37,0-.7.07-.99.2s-.54.32-.74.55c-.2.23-.36.51-.48.83-.11.32-.17.65-.17,1.01v5.8h-2.17v-9.84Z"/><path class="cls-1" d="M185.91,174.58h2.38v7.92c0,.46.02.92.07,1.39s.17.89.38,1.27c.21.37.53.68.95.92.42.24,1.02.36,1.8.36s1.37-.12,1.8-.36c.42-.24.74-.55.95-.92.21-.37.34-.8.38-1.27.05-.47.07-.93.07-1.39v-7.92h2.38v8.7c0,.87-.13,1.64-.4,2.28-.27.65-.64,1.19-1.13,1.63-.49.44-1.08.76-1.76.98s-1.45.32-2.28.32-1.6-.11-2.28-.32c-.68-.22-1.27-.54-1.76-.98-.49-.44-.87-.98-1.13-1.63-.27-.65-.4-1.41-.4-2.28v-8.7Z"/><path class="cls-1" d="M202.82,178.33h2.05v1.33h.04c.3-.57.73-.98,1.28-1.23.54-.25,1.13-.37,1.77-.37.77,0,1.45.14,2.03.41.58.27,1.06.65,1.44,1.12s.67,1.03.86,1.67c.19.63.29,1.31.29,2.04,0,.66-.09,1.3-.26,1.92-.17.62-.43,1.17-.78,1.65-.35.48-.79.86-1.32,1.14-.53.29-1.16.43-1.88.43-.32,0-.64-.03-.95-.09s-.62-.15-.91-.28-.56-.29-.81-.49c-.25-.2-.45-.43-.62-.69h-.04v4.91h-2.17v-13.47ZM210.39,183.26c0-.44-.06-.87-.17-1.29-.11-.42-.28-.79-.51-1.11-.23-.32-.51-.58-.86-.78-.34-.2-.74-.29-1.18-.29-.91,0-1.6.32-2.06.95-.46.63-.69,1.48-.69,2.53,0,.49.06.95.18,1.38.12.42.3.79.54,1.09.24.3.53.54.87.72s.73.27,1.17.27c.49,0,.91-.1,1.26-.31.34-.2.63-.47.85-.79.22-.32.38-.69.48-1.1s.14-.83.14-1.27Z"/><path class="cls-1" d="M226.76,187.65c0,1.48-.42,2.59-1.25,3.32s-2.03,1.09-3.59,1.09c-.49,0-.99-.05-1.49-.15-.5-.1-.96-.27-1.37-.51s-.76-.56-1.04-.95-.44-.88-.49-1.45h2.17c.06.31.17.55.32.74.15.19.33.34.54.45.21.11.44.18.69.21.25.03.52.05.8.05.87,0,1.51-.22,1.92-.65s.61-1.05.61-1.87v-1.5h-.04c-.3.55-.72.97-1.25,1.28-.53.3-1.09.46-1.7.46-.79,0-1.46-.14-2.01-.41s-1.01-.65-1.37-1.12-.62-1.03-.79-1.65c-.16-.62-.25-1.29-.25-2,0-.66.1-1.29.3-1.88s.49-1.12.88-1.57c.38-.45.85-.81,1.4-1.08.55-.27,1.18-.4,1.87-.4.62,0,1.19.13,1.71.39.52.26.92.67,1.2,1.23h.04v-1.35h2.17v9.32ZM221.94,186.45c.48,0,.89-.1,1.23-.29s.61-.46.82-.78c.21-.32.36-.69.46-1.1s.14-.83.14-1.25-.05-.82-.15-1.22-.26-.74-.47-1.05c-.21-.31-.48-.55-.82-.72s-.74-.27-1.21-.27-.89.1-1.22.3-.6.47-.8.79c-.2.32-.35.69-.44,1.1-.09.41-.13.82-.13,1.23s.05.8.15,1.19c.1.39.26.73.47,1.04.21.31.48.55.8.74.32.19.71.28,1.17.28Z"/><path class="cls-1" d="M232.22,178.33h2.04v1.9h.04c.06-.27.19-.53.37-.78.18-.25.41-.49.67-.69.26-.21.55-.38.87-.5.32-.13.64-.19.97-.19.25,0,.43,0,.52.02.1.01.19.03.29.04v2.09c-.15-.03-.31-.05-.47-.07s-.31-.03-.47-.03c-.37,0-.71.07-1.04.22-.32.15-.61.36-.85.65-.24.29-.43.64-.57,1.06-.14.42-.21.9-.21,1.45v4.68h-2.17v-9.84Z"/><path class="cls-1" d="M250.43,185.98c0,.27.03.46.1.57.07.11.21.17.41.17h.23c.09,0,.19-.01.31-.04v1.5c-.08.03-.18.05-.3.09-.12.03-.24.06-.37.09-.13.03-.25.04-.38.06-.13.01-.23.02-.32.02-.44,0-.81-.09-1.1-.27s-.48-.49-.57-.93c-.43.42-.96.72-1.59.91s-1.23.29-1.82.29c-.44,0-.87-.06-1.28-.18-.41-.12-.76-.3-1.08-.53s-.56-.53-.74-.9c-.18-.36-.28-.78-.28-1.26,0-.61.11-1.1.33-1.48.22-.38.51-.68.88-.9.36-.22.77-.37,1.22-.47s.9-.17,1.36-.22c.39-.08.77-.13,1.12-.16s.67-.09.94-.16.49-.19.65-.35.24-.4.24-.71c0-.28-.07-.51-.2-.69-.13-.18-.3-.31-.49-.41s-.42-.16-.66-.19c-.24-.03-.47-.05-.69-.05-.61,0-1.11.13-1.5.38s-.62.65-.67,1.18h-2.17c.04-.63.19-1.16.46-1.58.27-.42.61-.76,1.02-1.01.41-.25.88-.43,1.4-.53.52-.1,1.05-.15,1.6-.15.48,0,.96.05,1.43.15.47.1.89.27,1.27.5.37.23.68.52.9.88.23.36.34.8.34,1.32v5.06ZM248.26,183.24c-.33.22-.74.35-1.22.39-.48.05-.96.11-1.45.2-.23.04-.45.09-.67.16-.22.07-.41.16-.57.28-.17.12-.3.28-.39.48-.1.2-.14.44-.14.71,0,.24.07.44.21.61s.31.29.51.39c.2.1.41.16.65.2s.45.06.64.06c.24,0,.5-.03.78-.1.28-.06.54-.17.79-.32.25-.15.45-.34.62-.58s.25-.52.25-.87v-1.62Z"/><path class="cls-1" d="M265.31,188.17h-2.05v-1.33h-.04c-.29.57-.72.98-1.28,1.23-.56.25-1.15.37-1.77.37-.77,0-1.45-.14-2.03-.41-.58-.27-1.06-.64-1.44-1.11-.38-.47-.67-1.02-.86-1.67-.19-.64-.28-1.33-.28-2.06,0-.89.12-1.66.36-2.3.24-.65.56-1.18.96-1.6.4-.42.86-.73,1.37-.92s1.04-.29,1.57-.29c.3,0,.62.03.93.09.32.06.62.15.91.28.29.13.56.29.81.49.25.2.45.43.62.69h.04v-5.02h2.17v13.59ZM257.73,183.35c0,.42.05.83.16,1.24.11.41.27.77.5,1.08.22.32.5.57.85.76.34.19.75.29,1.22.29s.9-.1,1.25-.31c.35-.2.63-.47.86-.8.22-.33.39-.7.49-1.11.11-.41.16-.83.16-1.27,0-1.09-.24-1.94-.73-2.55s-1.15-.91-1.99-.91c-.51,0-.94.1-1.28.31s-.63.48-.86.82c-.22.34-.38.72-.48,1.14-.09.43-.14.86-.14,1.3Z"/><path class="cls-1" d="M272.63,183.81c0,.38.05.75.16,1.1.11.36.27.67.49.93.21.27.49.48.82.64s.72.24,1.18.24c.63,0,1.14-.14,1.53-.41.39-.27.68-.68.87-1.23h2.06c-.11.53-.31,1.01-.59,1.43-.28.42-.62.77-1.01,1.06-.39.29-.83.5-1.32.65s-1,.22-1.53.22c-.77,0-1.46-.13-2.05-.38-.6-.25-1.1-.61-1.51-1.07s-.72-1-.93-1.64c-.21-.63-.31-1.33-.31-2.09,0-.7.11-1.36.33-1.99s.54-1.18.95-1.66.91-.85,1.49-1.13c.58-.28,1.24-.42,1.98-.42.77,0,1.47.16,2.08.49.62.32,1.13.75,1.53,1.28s.7,1.15.89,1.84c.18.69.23,1.41.14,2.14h-7.23ZM277.69,182.38c-.03-.34-.1-.67-.22-.99-.12-.32-.29-.59-.49-.83-.21-.23-.46-.42-.76-.57-.3-.15-.63-.22-1-.22s-.73.07-1.04.2-.58.32-.8.55-.4.51-.53.83c-.13.32-.21.66-.22,1.03h5.06Z"/><path class="cls-1" d="M293.62,174.58h3.35l3.75,10.64h.04l3.65-10.64h3.31v13.59h-2.26v-10.48h-.04l-3.77,10.48h-1.96l-3.77-10.48h-.04v10.48h-2.26v-13.59Z"/><path class="cls-1" d="M318.05,188.43c-.79,0-1.49-.13-2.1-.39-.62-.26-1.13-.62-1.56-1.08-.42-.46-.75-1-.97-1.64-.22-.63-.33-1.33-.33-2.09s.11-1.44.33-2.07.55-1.18.97-1.64c.43-.46.95-.82,1.56-1.08.62-.26,1.32-.39,2.1-.39s1.49.13,2.1.39c.62.26,1.13.62,1.56,1.08.42.46.75,1,.97,1.64s.33,1.33.33,2.07-.11,1.46-.33,2.09c-.22.64-.55,1.18-.97,1.64-.43.46-.95.82-1.56,1.08-.62.26-1.32.39-2.1.39ZM318.05,186.72c.48,0,.9-.1,1.26-.31.36-.2.65-.47.88-.8.23-.33.4-.7.5-1.11.11-.41.16-.83.16-1.27s-.05-.84-.16-1.26c-.11-.42-.28-.79-.5-1.11-.23-.32-.52-.59-.88-.79s-.77-.3-1.26-.3-.9.1-1.26.3-.65.47-.88.79c-.23.32-.4.69-.5,1.11-.11.42-.16.84-.16,1.26s.05.85.16,1.27c.11.41.28.78.5,1.11.23.33.52.6.88.8.36.2.77.31,1.26.31Z"/><path class="cls-1" d="M337.36,188.17h-2.05v-1.33h-.04c-.29.57-.72.98-1.28,1.23-.56.25-1.15.37-1.77.37-.77,0-1.45-.14-2.03-.41-.58-.27-1.06-.64-1.44-1.11-.38-.47-.67-1.02-.86-1.67-.19-.64-.28-1.33-.28-2.06,0-.89.12-1.66.36-2.3.24-.65.56-1.18.96-1.6.4-.42.86-.73,1.37-.92s1.04-.29,1.57-.29c.3,0,.62.03.93.09.32.06.62.15.91.28.29.13.56.29.81.49.25.2.45.43.62.69h.04v-5.02h2.17v13.59ZM329.79,183.35c0,.42.05.83.16,1.24.11.41.27.77.5,1.08.22.32.5.57.85.76.34.19.75.29,1.22.29s.9-.1,1.25-.31c.35-.2.63-.47.86-.8.22-.33.39-.7.49-1.11.11-.41.16-.83.16-1.27,0-1.09-.24-1.94-.73-2.55s-1.15-.91-1.99-.91c-.51,0-.94.1-1.28.31s-.63.48-.86.82c-.22.34-.38.72-.48,1.14-.09.43-.14.86-.14,1.3Z"/><path class="cls-1" d="M351.63,188.17h-2.13v-1.37h-.04c-.27.49-.66.89-1.19,1.19s-1.06.45-1.61.45c-1.29,0-2.23-.32-2.81-.96-.58-.64-.87-1.61-.87-2.9v-6.24h2.17v6.03c0,.86.16,1.47.49,1.83s.79.53,1.39.53c.46,0,.84-.07,1.14-.21.31-.14.55-.33.74-.56s.33-.52.41-.85.12-.69.12-1.07v-5.71h2.17v9.84Z"/><path class="cls-1" d="M357.25,174.58h2.17v13.59h-2.17v-13.59Z"/><path class="cls-1" d="M373.29,185.98c0,.27.03.46.1.57.07.11.21.17.41.17h.23c.09,0,.19-.01.31-.04v1.5c-.08.03-.18.05-.3.09-.12.03-.24.06-.37.09-.13.03-.25.04-.38.06-.13.01-.23.02-.32.02-.44,0-.81-.09-1.1-.27s-.48-.49-.57-.93c-.43.42-.96.72-1.59.91s-1.23.29-1.82.29c-.44,0-.87-.06-1.28-.18-.41-.12-.76-.3-1.08-.53s-.56-.53-.74-.9c-.18-.36-.28-.78-.28-1.26,0-.61.11-1.1.33-1.48.22-.38.51-.68.88-.9.36-.22.77-.37,1.22-.47s.9-.17,1.36-.22c.39-.08.77-.13,1.12-.16s.67-.09.94-.16.49-.19.65-.35.24-.4.24-.71c0-.28-.07-.51-.2-.69-.13-.18-.3-.31-.49-.41s-.42-.16-.66-.19c-.24-.03-.47-.05-.69-.05-.61,0-1.11.13-1.5.38s-.62.65-.67,1.18h-2.17c.04-.63.19-1.16.46-1.58.27-.42.61-.76,1.02-1.01.41-.25.88-.43,1.4-.53.52-.1,1.05-.15,1.6-.15.48,0,.96.05,1.43.15.47.1.89.27,1.27.5.37.23.68.52.9.88.23.36.34.8.34,1.32v5.06ZM371.12,183.24c-.33.22-.74.35-1.22.39-.48.05-.96.11-1.45.2-.23.04-.45.09-.67.16-.22.07-.41.16-.57.28-.17.12-.3.28-.39.48-.1.2-.14.44-.14.71,0,.24.07.44.21.61s.31.29.51.39c.2.1.41.16.65.2s.45.06.64.06c.24,0,.5-.03.78-.1.28-.06.54-.17.79-.32.25-.15.45-.34.62-.58s.25-.52.25-.87v-1.62Z"/><path class="cls-1" d="M378.9,178.33h2.04v1.9h.04c.06-.27.19-.53.37-.78.18-.25.41-.49.67-.69.26-.21.55-.38.87-.5.32-.13.64-.19.97-.19.25,0,.43,0,.52.02.1.01.19.03.29.04v2.09c-.15-.03-.31-.05-.47-.07s-.31-.03-.47-.03c-.37,0-.71.07-1.04.22-.32.15-.61.36-.85.65-.24.29-.43.64-.57,1.06-.14.42-.21.9-.21,1.45v4.68h-2.17v-9.84Z"/><path class="cls-1" d="M397.74,174.58h9.78v2.05h-7.4v3.56h6.85v1.94h-6.85v3.98h7.54v2.05h-9.91v-13.59Z"/><path class="cls-1" d="M412.69,178.33h2.05v1.45l.04.04c.33-.54.76-.97,1.29-1.28s1.12-.47,1.77-.47c1.08,0,1.93.28,2.55.84.62.56.93,1.4.93,2.51v6.75h-2.17v-6.18c-.03-.77-.19-1.33-.49-1.68-.31-.35-.78-.52-1.43-.52-.37,0-.7.07-.99.2s-.54.32-.74.55c-.2.23-.36.51-.48.83-.11.32-.17.65-.17,1.01v5.8h-2.17v-9.84Z"/><path class="cls-1" d="M433.53,181.62c-.09-.61-.33-1.07-.73-1.38s-.9-.47-1.51-.47c-.28,0-.58.05-.9.14s-.61.27-.87.53c-.27.26-.49.62-.67,1.08-.18.46-.27,1.07-.27,1.82,0,.41.05.81.14,1.22.1.41.25.77.46,1.08.21.32.48.57.81.77s.73.3,1.2.3c.63,0,1.16-.2,1.57-.59s.67-.95.77-1.66h2.17c-.2,1.28-.69,2.26-1.46,2.94-.77.68-1.79,1.02-3.05,1.02-.77,0-1.46-.13-2.05-.39s-1.09-.62-1.49-1.07c-.41-.45-.71-.99-.92-1.61-.21-.62-.31-1.29-.31-2.02s.1-1.43.3-2.07.51-1.21.91-1.68c.41-.48.91-.85,1.51-1.12.6-.27,1.31-.41,2.12-.41.57,0,1.11.07,1.63.22.51.15.97.36,1.37.66s.73.66.98,1.1c.25.44.41.97.46,1.58h-2.17Z"/><path class="cls-1" d="M440.8,174.58h2.17v13.59h-2.17v-13.59Z"/><path class="cls-1" d="M453.11,188.43c-.79,0-1.49-.13-2.1-.39-.62-.26-1.13-.62-1.56-1.08-.42-.46-.75-1-.97-1.64-.22-.63-.33-1.33-.33-2.09s.11-1.44.33-2.07.55-1.18.97-1.64c.43-.46.95-.82,1.56-1.08.62-.26,1.32-.39,2.1-.39s1.49.13,2.1.39c.62.26,1.13.62,1.56,1.08.42.46.75,1,.97,1.64s.33,1.33.33,2.07-.11,1.46-.33,2.09c-.22.64-.55,1.18-.97,1.64-.43.46-.95.82-1.56,1.08-.62.26-1.32.39-2.1.39ZM453.11,186.72c.48,0,.9-.1,1.26-.31.36-.2.65-.47.88-.8.23-.33.4-.7.5-1.11.11-.41.16-.83.16-1.27s-.05-.84-.16-1.26c-.11-.42-.28-.79-.5-1.11-.23-.32-.52-.59-.88-.79s-.77-.3-1.26-.3-.9.1-1.26.3-.65.47-.88.79c-.23.32-.4.69-.5,1.11-.11.42-.16.84-.16,1.26s.05.85.16,1.27c.11.41.28.78.5,1.11.23.33.52.6.88.8.36.2.77.31,1.26.31Z"/><path class="cls-1" d="M464.79,185.01c.06.63.3,1.08.72,1.33.42.25.92.38,1.5.38.2,0,.43-.02.69-.05.26-.03.5-.09.73-.18.23-.09.42-.22.56-.39s.21-.4.2-.68c-.01-.28-.11-.51-.31-.69-.19-.18-.43-.32-.73-.43-.3-.11-.64-.2-1.02-.28-.38-.08-.77-.16-1.16-.25-.41-.09-.8-.2-1.17-.32-.37-.13-.71-.3-1.01-.51-.3-.22-.54-.49-.71-.83s-.27-.75-.27-1.25c0-.53.13-.98.39-1.34.26-.36.59-.65.99-.87s.84-.38,1.33-.47c.49-.09.95-.13,1.4-.13.51,0,.99.05,1.46.16.46.11.88.28,1.26.52.37.24.69.56.93.94.25.39.4.85.47,1.4h-2.26c-.1-.52-.34-.87-.71-1.05s-.8-.27-1.28-.27c-.15,0-.33.01-.54.04-.21.03-.41.07-.59.14-.18.07-.34.17-.47.31-.13.13-.19.31-.19.52,0,.27.09.48.28.65.18.17.42.3.72.41.3.11.64.2,1.02.28.38.08.77.16,1.18.25.39.09.78.2,1.16.32.38.13.72.3,1.02.51s.54.49.72.82.28.74.28,1.22c0,.58-.13,1.08-.4,1.49-.27.41-.61.74-1.04.99-.42.25-.9.44-1.42.55-.52.11-1.03.17-1.54.17-.62,0-1.2-.07-1.72-.21s-.98-.35-1.37-.64c-.39-.28-.69-.64-.91-1.07-.22-.42-.34-.93-.35-1.51h2.17Z"/><path class="cls-1" d="M484.94,188.17h-2.13v-1.37h-.04c-.27.49-.66.89-1.19,1.19s-1.06.45-1.61.45c-1.29,0-2.23-.32-2.81-.96-.58-.64-.87-1.61-.87-2.9v-6.24h2.17v6.03c0,.86.16,1.47.49,1.83s.79.53,1.39.53c.46,0,.84-.07,1.14-.21.31-.14.55-.33.74-.56s.33-.52.41-.85.12-.69.12-1.07v-5.71h2.17v9.84Z"/><path class="cls-1" d="M490.5,178.33h2.04v1.9h.04c.06-.27.19-.53.37-.78.18-.25.41-.49.67-.69.26-.21.55-.38.87-.5.32-.13.64-.19.97-.19.25,0,.43,0,.52.02.1.01.19.03.29.04v2.09c-.15-.03-.31-.05-.47-.07s-.31-.03-.47-.03c-.37,0-.71.07-1.04.22-.32.15-.61.36-.85.65-.24.29-.43.64-.57,1.06-.14.42-.21.9-.21,1.45v4.68h-2.17v-9.84Z"/><path class="cls-1" d="M502.16,183.81c0,.38.05.75.16,1.1.11.36.27.67.49.93.21.27.49.48.82.64s.72.24,1.18.24c.63,0,1.14-.14,1.53-.41.39-.27.68-.68.87-1.23h2.06c-.11.53-.31,1.01-.59,1.43-.28.42-.62.77-1.01,1.06-.39.29-.83.5-1.32.65s-1,.22-1.53.22c-.77,0-1.46-.13-2.05-.38-.6-.25-1.1-.61-1.51-1.07s-.72-1-.93-1.64c-.21-.63-.31-1.33-.31-2.09,0-.7.11-1.36.33-1.99s.54-1.18.95-1.66.91-.85,1.49-1.13c.58-.28,1.24-.42,1.98-.42.77,0,1.47.16,2.08.49.62.32,1.13.75,1.53,1.28s.7,1.15.89,1.84c.18.69.23,1.41.14,2.14h-7.23ZM507.22,182.38c-.03-.34-.1-.67-.22-.99-.12-.32-.29-.59-.49-.83-.21-.23-.46-.42-.76-.57-.3-.15-.63-.22-1-.22s-.73.07-1.04.2-.58.32-.8.55-.4.51-.53.83c-.13.32-.21.66-.22,1.03h5.06Z"/><path class="cls-2" d="M155.56,102.86c-.64.67-1.69,1.41-2.76,1.89-1.96-.52-4.48-2.35-6.53-1.69-3.28,2.87-7.58,10-9.38,18.17-1.66,7.32-1.27,12.3-.12,15.68.97,2.92,3.01,4.38,5.27,3.56,4.45-1.62,8.06-7,10.37-11.55,1.1-2.08,1.96-5.04,2.45-7.6.79-.73,1.9-1.58,2.7-2.04,1.06.23,2.22.52,2.79,1.11-.66,4.74-1.04,10.01-1.02,13.45-.01,4.33.16,8.69.79,11.64-.68,1.04-1.99,2.05-3.21,2.58-.66-.11-1.88-.55-2.71-1.13-.1-3.67.22-10.07.41-13.93.04-.37-.67-.38-.69-.19-2.91,4.86-8.66,12.61-14.36,14.68-3.12,1.14-5.76-.29-7.75-5.75-4.06-11.16,1.96-30.04,10.86-39.82,1.43-1.41,2.77-2.6,4.99-3.76,3.52-1.01,6.43-.31,8.09.86.28,1.49.19,2.94-.18,3.87Z"/><path class="cls-2" d="M174.96,107.11c.89-1.92,2.45-3.72,3.38-4.06,1.49-.02,3.04.84,4.06,3.64,3.44,9.44-2.35,26.3-9.37,28.86-2.81,1.02-5.19-.67-6.41-4.03-3.07-8.43,2.2-21.12,4.97-24.69.94-.34,2.09-.32,3.37.28ZM170.87,126.71c1.16,3.2,2.45,3.35,4.17,2.72,3.12-1.14,5.76-12.08,3.55-18.17-.82-2.26-2.53-3.32-4.34-3.19-3.75,4.99-5.2,13.64-3.38,18.63Z"/><path class="cls-2" d="M190.75,124.77c-1.22-3.36-1.32-9.68-1.14-18.67-.04-.6-.23-1.86-.84-2.79.7-1.23,2.24-2.84,3.4-3.53.68-.07,1.99.6,2.64,1.42-1.49,10.97-1.1,15.68-.19,18.18.48,1.33,1.13,1.89,1.75,1.66.86-.31,2.67-2.38,3.84-4.49.51.43,1.3,1.38,1.53,2.01-3.55,5.53-6.52,8.29-7.85,8.78-1.17.42-2.2,0-3.14-2.57ZM196.01,82.39c.28.78.27,4.14-2.42,6.45-1.9-.11-3.4-1.33-3.68-2.11-.25-.44.28-5.05,3.11-6.26,1.32.23,2.88,1.6,2.99,1.91Z"/><path class="cls-2" d="M204.78,95.1c1.19-.61,2.13-.95,3.45-1.43.28.52.52.96.69,1.42.8,2.19,1.54,7.39,1.35,13.91.01.53.64.3.87-.05,5.42-13.02,10.16-20.39,12.65-21.3,1.25-.45,2.04.76,2.7,2.55,1.33,3.67-.13,13.48,1.23,17.22.48,1.33.94,1.86,3,2.18.21.81.13,1.81-.11,2.6-.89.94-3.05,2.79-4.3,3.24-1.19.61-1.82-.13-2.5-2.01-1.56-4.29-.54-13.85-1.39-16.19-.4-1.09-.63-1.01-.94-.89-1.4.51-6.2,8.71-8.93,17.21-.38,1.38-.99,4.07-1.27,5.24-.68,1.04-1.96,2.13-3.13,2.55-.78.28-1.76.02-2.47.01.43-7.31.26-16.26-.9-19.46-.46-1.25-1.04-2.36-2.03-3.15.43-1.48,1.19-2.56,2.03-3.65Z"/><path class="cls-2" d="M249.24,80.34c.45-.96,1.41-2.19,2.2-2.92.77.16,1.79.32,2.68,1.06-.93,3.52.74,18.29.94,31.46.17,12.13-5.31,24.02-12.3,27.62-2.29.75-6.73-.29-9.01-.96-.12-.57-.31-1.83-.15-2.6.37-.67,1.45-1.85,2.94-2.84,1.26.78,5.67,2.71,7.57,2.1,3.69-3.46,5.98-8.1,6.16-21.68-.06-5.02-.4-13.73-.55-17.29-.05-.6-.62-.48-.74-.09-2.57,6.77-6.43,14.62-10.17,15.98-.7.26-2.03-.23-2.85-2.5-3.72-10.22,3.61-26.49,8.37-28.22.93-.34,3.71.24,4.91.86ZM239.96,100.94c.34.94.94,1.6,1.48,1.4,1.87-.68,7.01-11.56,7.04-17.32-.89-.74-3.26-1.91-4.35-1.51-2.26.82-6.36,11.41-4.17,17.42Z"/><path class="cls-2" d="M301.77,83.13c-5.32,6.26-9.99,9.2-16.7,11.64-1.09.4-3.08.77-3.79.76-1.32-.23-3.44-.96-4.74-2.34-.51-3.35-.55-7.57-.25-18.64.23-6.89,1.03-13.45,1.64-17.83-2.34-.12-5.02-.21-8.09.12-.4-1.09,1.43-4.32,3.17-5.13,4.06-.24,12.09.2,17.1,1.11,7.79,1.49,15.51,5.22,17.69,11.23,2.33,6.4-.93,12.97-6.05,19.08ZM283.01,57.09c-1.07,5.07-1.74,11.23-1.81,16.39-.09,8.51.33,14.02,1.02,16.15.85.4,1.72.61,2.35.65.95-.08,2.28-.3,3.68-.81,2.96-1.08,6.63-3.38,10.29-7.9,3.84-4.75,4.86-10.43,3.3-14.72-1.99-5.46-8.46-8.93-18.84-9.75Z"/><path class="cls-2" d="M328.82,50.4c.61-.75,1.3-1.53,1.99-2.31.82.06,1.55-.12,2.43.36-.54,6.29-1.26,16.45.53,21.36.4,1.09,1.01,1.57,1.56,1.38.78-.28,2.25-2.06,3.23-3.74.51.43,1.08,1.28,1.42,1.96-1.45,2.56-5.28,7.84-7.46,8.63-.62.23-1.77-.24-2.39-1.96-.56-1.3-1.41-5.58-1.32-8.71,0-.26-.59-.4-.76.1-3.06,7.38-7.05,13.88-10.64,15.18-.86.31-2.14-.28-2.87-2.31-2.1-5.77-1.32-15.51,5.2-25.04,1.57-2.25,3.79-4.65,5.42-5.24.78-.28,2.31.04,3.66.35ZM319.04,74.01c.28.78.56,1.3,1.11,1.1,2.5-.91,6.65-8.43,7.97-19.86-.81-.77-2.85-1.52-3.48-1.3-2.97,1.08-8.01,13.43-5.6,20.06Z"/><path class="cls-2" d="M349.7,62.59c-.18.95-.79,4.62-.88,7.3-.43.77-1.63,1.83-2.42,2.56-1.04.29-2.15.16-2.94-.08.46-8.21.35-17-.62-19.91-.8-2.19-1.75-3.6-2.4-4.16.57-2.33,1.73-3.99,4.49-4.9.82,1.03,1.07,1.73,1.55,3.06.54,1.48,1.07,4.38,1.22,7.95-.06.55.67.38.77.16,3.36-10.68,6.8-17.49,8.98-18.29,1.13-.06,2.94.08,4.19.59.31.86.73,2.74.57,3.77-.63.94-1.81,2.07-2.59,2.36-.71,0-1.66-.19-2.67-.79-1.44,1.14-4.69,7.98-7.24,20.4Z"/><path class="cls-2" d="M372.03,45.54c4.45-4.53,8.24-10.86,9.19-15.53,1.02-.37,1.7-.44,2.48-.46.56.33,1.31,1.64,1.59,2.42-.8,2.41-6.82,10.88-9.27,13.62-.21.16-.14.58.1.76,3.57,2.77,9.23,6.18,12.99,6.32.23.62.33,1.65.24,2.12-.81,1.18-2.69,2.57-4.14,3.19-3.67-.87-10.56-5.96-14.05-8.76-.09,6.3.28,10.23.51,12.09-.78,1.26-1.87,2.62-3.38,3.35-.71,0-2.16-.36-2.65-.98.51-2.48,1.21-10.51,1.25-26.43,0-13.08-.48-24.39-1.7-25.8.89-1.21,2.5-2.85,3.84-3.52.69.19,1.73.87,2.6,1.79-.44,8.99-.4,22.94-.52,35.71.04.34.51.43.92.1Z"/></svg>