<?xml version="1.0" encoding="UTF-8"?><svg id="_レイヤー_2" xmlns="http://www.w3.org/2000/svg" viewBox="0 0 1584 1584"><defs><style>.cls-1{fill:#fff;stroke-width:0px;}</style></defs><polyline class="cls-1" points="720.6 583.27 840.6 903.27 1000.6 903.27 1080.6 503.27 1000.6 503.27 936.64 823.27 880.6 823.27 760.6 503.27"/><polyline class="cls-1" points="680.6 503.27 616.24 823.27 720.6 823.27 920.6 503.27 986.64 503.27 736.64 903.27 520.6 903.27 600.6 503.27 760.6 503.27 760.6 583.27 584.6 583.27"/><polygon class="cls-1" points="632.33 743.27 700.6 743.27 716.61 663.27 648.42 663.27 632.33 743.27"/><polygon class="cls-1" points="900.6 663.27 968.62 663.27 952.63 743.27 884.55 743.27 900.6 663.27"/><path class="cls-1" d="M472.6,343.27l-144,720h800l144-720H472.6ZM1064.6,983.27H424.6l112-560h640l-112,560Z"/><path class="cls-1" d="M328.2,1211.74l-1.81,8.22h-21.8l-2.18,10.28h19.06l-1.62,7.6h-19l-3.92,18.38h-9.72l9.34-44.48h31.64Z"/><path class="cls-1" d="M329.88,1227.31c1.12-3.24,2.73-6.09,4.83-8.57,2.1-2.47,4.65-4.43,7.66-5.89,3.01-1.45,6.38-2.18,10.12-2.18,2.99,0,5.71.41,8.16,1.21,2.45.81,4.53,2.02,6.23,3.64s3.02,3.61,3.96,5.98c.93,2.37,1.4,5.11,1.4,8.22,0,3.66-.54,7.14-1.62,10.47-1.08,3.32-2.65,6.25-4.7,8.78-2.06,2.53-4.59,4.54-7.6,6.01-3.01,1.47-6.47,2.21-10.37,2.21-6.31,0-11.18-1.68-14.61-5.05-3.43-3.36-5.14-8.22-5.14-14.58,0-3.61.56-7.04,1.68-10.28ZM338.57,1241.95c.39,1.37,1,2.59,1.81,3.64.81,1.06,1.85,1.9,3.11,2.52,1.27.62,2.79.93,4.58.93,2.41,0,4.51-.57,6.29-1.71,1.79-1.14,3.28-2.62,4.49-4.42,1.2-1.81,2.11-3.81,2.71-6.01.6-2.2.9-4.36.9-6.48,0-1.58-.18-3.06-.53-4.45-.35-1.39-.92-2.61-1.71-3.64-.79-1.04-1.81-1.87-3.05-2.49-1.25-.62-2.78-.93-4.61-.93-2.49,0-4.66.57-6.51,1.71-1.85,1.14-3.36,2.62-4.55,4.42-1.18,1.81-2.07,3.82-2.65,6.04-.58,2.22-.87,4.39-.87,6.51,0,1.54.2,2.99.59,4.36Z"/><path class="cls-1" d="M406.25,1211.74c1.99-.04,3.81.14,5.45.53,1.64.4,3.04,1.06,4.21,1.99,1.16.93,2.06,2.15,2.68,3.64.62,1.5.93,3.32.93,5.48,0,1.5-.25,2.93-.75,4.3-.5,1.37-1.21,2.59-2.12,3.64-.91,1.06-1.99,1.94-3.24,2.65-1.25.71-2.62,1.16-4.11,1.37v.12c1.83.58,3.05,1.59,3.68,3.02s.93,3.04.93,4.83c0,1-.05,2.19-.16,3.58-.1,1.39-.16,2.77-.16,4.14,0,1,.04,1.94.12,2.83.08.89.25,1.67.5,2.34h-9.53c-.12-.54-.23-1.05-.31-1.53-.08-.48-.12-.97-.12-1.46,0-1.49.08-3,.25-4.52.17-1.52.25-3.02.25-4.52,0-1.08-.16-1.96-.47-2.65s-.75-1.24-1.31-1.65c-.56-.41-1.24-.69-2.02-.84-.79-.15-1.66-.22-2.62-.22h-9.22l-3.67,17.38h-9.72l9.28-44.48h21.24ZM399.65,1231.86c1.33,0,2.59-.13,3.8-.4,1.2-.27,2.27-.69,3.21-1.25s1.68-1.29,2.24-2.18c.56-.89.84-1.96.84-3.21s-.2-2.17-.59-2.9c-.4-.73-.92-1.28-1.59-1.65-.67-.37-1.43-.62-2.3-.75s-1.79-.19-2.74-.19h-9.28l-2.62,12.52h9.03Z"/><path class="cls-1" d="M450.92,1256.22l-5.11-44.48h9.78l2.93,33.39h.12l16.88-33.39h10.15l-23.73,44.48h-11.03Z"/><path class="cls-1" d="M522.92,1211.74l-1.81,8.22h-21.8l-2.18,10.28h19.06l-1.62,7.6h-19l-3.92,18.38h-9.72l9.34-44.48h31.64Z"/><path class="cls-1" d="M553.04,1220.99c-1.47-1.39-3.4-2.09-5.76-2.09-2.49,0-4.66.57-6.51,1.71-1.85,1.14-3.36,2.62-4.55,4.42-1.18,1.81-2.07,3.82-2.65,6.04-.58,2.22-.87,4.39-.87,6.51,0,1.54.2,2.99.59,4.36.39,1.37,1,2.59,1.81,3.64.81,1.06,1.85,1.9,3.11,2.52,1.27.62,2.79.93,4.58.93,1.33,0,2.59-.24,3.77-.72,1.18-.48,2.23-1.12,3.15-1.93.91-.81,1.68-1.75,2.3-2.83.62-1.08,1.04-2.2,1.25-3.36h9.78c-1,3.11-2.17,5.75-3.52,7.91-1.35,2.16-2.87,3.92-4.55,5.26-1.68,1.35-3.55,2.33-5.61,2.93s-4.29.9-6.7.9c-6.31,0-11.18-1.68-14.61-5.05-3.43-3.36-5.14-8.22-5.14-14.58,0-3.61.56-7.04,1.68-10.28,1.12-3.24,2.73-6.09,4.83-8.57,2.1-2.47,4.65-4.43,7.66-5.89,3.01-1.45,6.38-2.18,10.12-2.18,2.58,0,4.96.35,7.16,1.06,2.2.71,4.1,1.75,5.7,3.15,1.6,1.39,2.83,3.11,3.71,5.17s1.29,4.43,1.25,7.13h-9.78c0-2.74-.74-4.81-2.21-6.2Z"/><path class="cls-1" d="M620.48,1251.67c-1.45,1.99-3.16,3.42-5.11,4.27-1.95.85-3.99,1.28-6.1,1.28-6.31,0-11.18-1.68-14.61-5.05-3.43-3.36-5.14-8.22-5.14-14.58,0-3.61.56-7.04,1.68-10.28,1.12-3.24,2.73-6.09,4.83-8.57,2.1-2.47,4.65-4.43,7.66-5.89,3.01-1.45,6.38-2.18,10.12-2.18,2.62,0,5.07.31,7.35.93s4.28,1.58,5.98,2.87c1.7,1.29,3.05,2.92,4.05,4.89,1,1.97,1.5,4.33,1.5,7.07h-9.78c-.12-2.74-.98-4.68-2.55-5.82-1.58-1.14-3.74-1.71-6.48-1.71-2.49,0-4.66.57-6.51,1.71-1.85,1.14-3.36,2.62-4.55,4.42-1.18,1.81-2.07,3.82-2.65,6.04-.58,2.22-.87,4.39-.87,6.51,0,1.54.2,2.99.59,4.36.39,1.37,1,2.59,1.81,3.64.81,1.06,1.85,1.9,3.11,2.52,1.27.62,2.79.93,4.58.93s3.48-.24,4.83-.72c1.35-.48,2.51-1.13,3.49-1.96.98-.83,1.79-1.84,2.43-3.02.64-1.18,1.17-2.48,1.59-3.89h-10.28l1.56-7.29h18.88l-5.11,24.04h-6.17v-4.55h-.12Z"/><path class="cls-1" d="M663.83,1211.74c2.24,0,4.26.15,6.04.44,1.79.29,3.3.82,4.55,1.59,1.25.77,2.2,1.83,2.87,3.18.66,1.35,1,3.08,1,5.2,0,1.25-.19,2.46-.56,3.64s-.92,2.24-1.65,3.18c-.73.93-1.6,1.71-2.62,2.34-1.02.62-2.19,1.02-3.52,1.18v.12c2.12.58,3.75,1.69,4.89,3.33,1.14,1.64,1.71,3.54,1.71,5.7,0,2.41-.47,4.53-1.4,6.35-.93,1.83-2.19,3.34-3.77,4.55-1.58,1.21-3.39,2.12-5.42,2.74-2.04.62-4.17.93-6.42.93h-23.67l9.28-44.48h18.69ZM659.09,1248.62c2.24,0,4.08-.6,5.51-1.81,1.43-1.2,2.15-2.99,2.15-5.36,0-1.16-.24-2.08-.72-2.74-.48-.66-1.09-1.17-1.84-1.53-.75-.35-1.58-.57-2.49-.65-.91-.08-1.81-.12-2.68-.12h-9.59l-2.62,12.21h12.27ZM661.9,1229.74c1.79,0,3.33-.49,4.64-1.46,1.31-.98,1.96-2.44,1.96-4.39,0-1.74-.47-2.94-1.4-3.58-.93-.64-2.19-.97-3.77-.97h-10.34l-2.18,10.4h11.09Z"/><path class="cls-1" d="M710.36,1211.74c2.24,0,4.26.15,6.04.44,1.79.29,3.3.82,4.55,1.59,1.25.77,2.2,1.83,2.87,3.18.66,1.35,1,3.08,1,5.2,0,1.25-.19,2.46-.56,3.64s-.92,2.24-1.65,3.18c-.73.93-1.6,1.71-2.62,2.34-1.02.62-2.19,1.02-3.52,1.18v.12c2.12.58,3.75,1.69,4.89,3.33,1.14,1.64,1.71,3.54,1.71,5.7,0,2.41-.47,4.53-1.4,6.35-.93,1.83-2.19,3.34-3.77,4.55-1.58,1.21-3.39,2.12-5.42,2.74-2.04.62-4.17.93-6.42.93h-23.67l9.28-44.48h18.69ZM705.63,1248.62c2.24,0,4.08-.6,5.51-1.81,1.43-1.2,2.15-2.99,2.15-5.36,0-1.16-.24-2.08-.72-2.74-.48-.66-1.09-1.17-1.84-1.53-.75-.35-1.58-.57-2.49-.65-.91-.08-1.81-.12-2.68-.12h-9.59l-2.62,12.21h12.27ZM708.43,1229.74c1.79,0,3.33-.49,4.64-1.46,1.31-.98,1.96-2.44,1.96-4.39,0-1.74-.47-2.94-1.4-3.58-.93-.64-2.19-.97-3.77-.97h-10.34l-2.18,10.4h11.09Z"/><path class="cls-1" d="M774.83,1211.74c2.24,0,4.31.22,6.2.65s3.52,1.15,4.89,2.15c1.37,1,2.44,2.33,3.21,3.99.77,1.66,1.15,3.72,1.15,6.17s-.47,4.64-1.4,6.57c-.93,1.93-2.2,3.56-3.8,4.89-1.6,1.33-3.44,2.35-5.51,3.05-2.08.71-4.28,1.06-6.6,1.06h-12.08l-3.36,15.95h-9.72l9.22-44.48h17.82ZM772.47,1232.67c2.49,0,4.45-.63,5.89-1.9,1.43-1.27,2.15-3.23,2.15-5.89,0-1.12-.2-2.04-.59-2.77-.39-.73-.92-1.29-1.59-1.68-.67-.39-1.4-.67-2.21-.84-.81-.17-1.65-.25-2.52-.25h-8.35l-2.74,13.33h9.97Z"/><path class="cls-1" d="M808.41,1230.24c.96,0,1.92-.08,2.9-.25.98-.17,1.87-.47,2.68-.9s1.47-1.03,1.99-1.78c.52-.75.78-1.7.78-2.87,0-.96-.17-1.76-.5-2.43-.33-.66-.77-1.22-1.31-1.68-.54-.46-1.17-.79-1.9-1-.73-.21-1.49-.31-2.27-.31-2.49,0-4.37.62-5.64,1.87-1.27,1.25-2.17,3.11-2.71,5.61h-8.41c.66-4.78,2.48-8.43,5.45-10.96,2.97-2.53,6.78-3.8,11.43-3.8,1.75,0,3.48.2,5.2.59,1.72.4,3.26,1.04,4.61,1.93,1.35.89,2.45,2.07,3.3,3.52.85,1.45,1.28,3.24,1.28,5.36,0,2.62-.77,4.82-2.3,6.6-1.54,1.79-3.51,2.93-5.92,3.43v.12c2.24.71,3.82,1.81,4.73,3.3.91,1.5,1.37,3.36,1.37,5.61,0,2.58-.48,4.8-1.43,6.67-.96,1.87-2.25,3.41-3.89,4.61-1.64,1.2-3.54,2.1-5.7,2.68s-4.46.87-6.91.87c-5.36,0-9.31-1.32-11.87-3.96-2.55-2.64-3.66-6.57-3.33-11.8h8.35c-.29,2.62.17,4.69,1.37,6.23,1.2,1.54,3.12,2.31,5.73,2.31,2.37,0,4.36-.69,5.98-2.06,1.62-1.37,2.43-3.32,2.43-5.86,0-1.91-.59-3.29-1.78-4.14-1.18-.85-2.65-1.28-4.39-1.28h-3.18l1.18-6.23h2.68Z"/><path class="cls-1" d="M835.32,1216.07c3.11-2.89,7.18-4.33,12.21-4.33,1.99,0,3.86.26,5.61.78,1.74.52,3.28,1.32,4.61,2.4,1.33,1.08,2.38,2.45,3.15,4.11.77,1.66,1.15,3.61,1.15,5.86,0,2.12-.46,4.02-1.37,5.7-.91,1.68-2.1,3.2-3.55,4.55-1.45,1.35-3.1,2.58-4.95,3.71-1.85,1.12-3.69,2.21-5.51,3.27-1.83,1.06-3.57,2.11-5.23,3.15-1.66,1.04-3.05,2.16-4.17,3.36h21.49l-1.74,7.6h-32.27c.17-2.7.77-5.05,1.81-7.04,1.04-1.99,2.37-3.75,3.99-5.26,1.62-1.52,3.45-2.88,5.48-4.08,2.03-1.2,4.11-2.37,6.23-3.49,1.08-.62,2.25-1.27,3.52-1.93,1.27-.66,2.45-1.42,3.55-2.27,1.1-.85,2.02-1.82,2.77-2.9.75-1.08,1.12-2.35,1.12-3.8,0-2.2-.65-3.77-1.96-4.7-1.31-.93-2.9-1.4-4.76-1.4-1.21,0-2.3.24-3.27.72-.98.48-1.81,1.13-2.49,1.96-.68.83-1.23,1.79-1.62,2.87-.4,1.08-.61,2.22-.65,3.43h-8.41c.41-5.27,2.18-9.35,5.29-12.24Z"/><path class="cls-1" d="M863.85,1233.92c.37-2.2.92-4.36,1.65-6.48.73-2.12,1.66-4.13,2.8-6.04,1.14-1.91,2.47-3.58,3.99-5.01,1.52-1.43,3.24-2.56,5.17-3.4,1.93-.83,4.06-1.25,6.39-1.25,2.45,0,4.59.4,6.42,1.21,1.83.81,3.34,1.94,4.55,3.4,1.2,1.45,2.11,3.19,2.71,5.2.6,2.02.9,4.25.9,6.7,0,2.12-.19,4.31-.56,6.57-.37,2.26-.95,4.45-1.71,6.57-.77,2.12-1.74,4.13-2.93,6.04-1.18,1.91-2.57,3.57-4.14,4.98-1.58,1.41-3.36,2.53-5.36,3.36s-4.22,1.25-6.67,1.25-4.62-.45-6.39-1.34c-1.77-.89-3.19-2.11-4.27-3.64-1.08-1.54-1.87-3.31-2.37-5.33-.5-2.01-.75-4.14-.75-6.39,0-2.08.19-4.21.56-6.42ZM872.35,1245.1c.19.93.51,1.74.96,2.43.46.69,1.08,1.24,1.87,1.65.79.42,1.79.62,2.99.62,1.5,0,2.81-.43,3.96-1.28,1.14-.85,2.13-1.96,2.96-3.33s1.54-2.91,2.12-4.61c.58-1.7,1.05-3.4,1.4-5.11.35-1.7.6-3.31.75-4.83.14-1.52.22-2.77.22-3.77,0-1.08-.12-2.1-.34-3.05-.23-.96-.6-1.79-1.12-2.49-.52-.71-1.18-1.27-1.99-1.68-.81-.41-1.78-.62-2.9-.62-1.45,0-2.74.43-3.86,1.28-1.12.85-2.1,1.96-2.93,3.33-.83,1.37-1.53,2.92-2.09,4.64-.56,1.72-1.01,3.44-1.34,5.14-.33,1.7-.57,3.32-.72,4.86-.15,1.54-.22,2.82-.22,3.86s.09,2.02.28,2.96Z"/><path class="cls-1" d="M942.9,1210.68l-17.38,46.53h-7.04l17.32-46.53h7.1Z"/><path class="cls-1" d="M985.88,1211.74l3.43,32.21h.12l17.13-32.21h13.64l-9.41,44.48h-9.16l8.1-35.38h-.12l-18.81,35.38h-7.48l-4.3-35.38h-.12l-6.67,35.38h-9.22l9.34-44.48h13.52Z"/><path class="cls-1" d="M1031.98,1256.22l5.98-28.28h-10.65l1.43-6.67c1.62-.08,3.15-.26,4.58-.53,1.43-.27,2.76-.73,3.99-1.37,1.22-.64,2.35-1.5,3.36-2.58,1.02-1.08,1.92-2.47,2.71-4.17h7.23l-9.22,43.6h-9.41Z"/><path class="cls-1" d="M1085.52,1227.59c-2.26,2.85-4.33,5.87-6.2,9.06-1.87,3.2-3.51,6.48-4.92,9.84-1.41,3.36-2.51,6.6-3.3,9.72h-9.41c.75-2.99,1.85-6.12,3.3-9.41,1.45-3.28,3.12-6.49,5.01-9.62,1.89-3.14,3.96-6.11,6.2-8.94,2.24-2.82,4.51-5.29,6.79-7.41h-21.43l1.74-8.22h30.96l-1.62,7.6c-2.49,2.08-4.87,4.54-7.13,7.38Z"/><path class="cls-1" d="M375.04,1106.92l-2.67,13.06h-38.39l-3.17,15.14h35.52l-2.57,12.07h-35.52l-3.66,17.31h38.98l-2.77,13.06h-54.41l14.74-70.64h53.92Z"/><path class="cls-1" d="M391.27,1106.92h16.92l9.99,23.35,18.1-23.35h18.4l-29.38,34.13,17.51,36.51h-17.12l-11.08-25.23-20.18,25.23h-18.7l32.05-37.2-16.52-33.44Z"/><path class="cls-1" d="M463.78,1119.98l2.77-13.06h58.96l-2.77,13.06h-21.17l-12.07,57.58h-15.63l12.07-57.58h-22.16Z"/><path class="cls-1" d="M576.96,1106.92c3.17-.06,6.05.21,8.66.84,2.6.63,4.83,1.68,6.68,3.17,1.85,1.48,3.26,3.41,4.25,5.79.99,2.37,1.48,5.28,1.48,8.71,0,2.37-.4,4.65-1.19,6.83-.79,2.18-1.91,4.11-3.36,5.79-1.45,1.68-3.17,3.08-5.14,4.21-1.98,1.12-4.16,1.85-6.53,2.18v.2c2.9.92,4.85,2.52,5.84,4.8s1.48,4.83,1.48,7.67c0,1.58-.08,3.48-.25,5.69-.17,2.21-.25,4.4-.25,6.58,0,1.58.06,3.08.2,4.5.13,1.42.4,2.66.79,3.71h-15.14c-.2-.86-.36-1.67-.5-2.42-.13-.76-.2-1.53-.2-2.33,0-2.37.13-4.76.4-7.17.26-2.41.4-4.8.4-7.17,0-1.71-.25-3.12-.74-4.2-.49-1.09-1.19-1.96-2.08-2.62-.89-.66-1.96-1.1-3.21-1.34-1.25-.23-2.64-.35-4.16-.35h-14.64l-5.84,27.6h-15.43l14.74-70.64h33.74ZM566.47,1138.88c2.11,0,4.12-.21,6.04-.64,1.91-.43,3.61-1.09,5.09-1.98,1.48-.89,2.67-2.04,3.56-3.46.89-1.42,1.34-3.12,1.34-5.1s-.31-3.45-.94-4.6c-.63-1.15-1.47-2.03-2.52-2.62-1.06-.59-2.28-.99-3.66-1.19-1.39-.2-2.84-.3-4.35-.3h-14.74l-4.15,19.89h14.34Z"/><path class="cls-1" d="M660.16,1106.92l11.77,70.64h-15.43l-2.28-15.73h-26.42l-8.9,15.73h-16.32l41.65-70.64h15.93ZM652.84,1150.25l-3.46-28.1h-.2l-15.24,28.1h18.9Z"/><path class="cls-1" d="M789.96,1106.92l-2.87,13.06h-34.63l-3.46,16.32h30.27l-2.57,12.07h-30.17l-6.23,29.19h-15.43l14.84-70.64h50.26Z"/><path class="cls-1" d="M841.9,1106.92c3.17-.06,6.05.21,8.66.84,2.6.63,4.83,1.68,6.68,3.17,1.85,1.48,3.26,3.41,4.25,5.79.99,2.37,1.48,5.28,1.48,8.71,0,2.37-.4,4.65-1.19,6.83-.79,2.18-1.91,4.11-3.36,5.79-1.45,1.68-3.17,3.08-5.14,4.21-1.98,1.12-4.16,1.85-6.53,2.18v.2c2.9.92,4.85,2.52,5.84,4.8s1.48,4.83,1.48,7.67c0,1.58-.08,3.48-.25,5.69-.17,2.21-.25,4.4-.25,6.58,0,1.58.06,3.08.2,4.5.13,1.42.4,2.66.79,3.71h-15.14c-.2-.86-.36-1.67-.5-2.42-.13-.76-.2-1.53-.2-2.33,0-2.37.13-4.76.4-7.17.26-2.41.4-4.8.4-7.17,0-1.71-.25-3.12-.74-4.2-.49-1.09-1.19-1.96-2.08-2.62-.89-.66-1.96-1.1-3.21-1.34-1.25-.23-2.64-.35-4.16-.35h-14.64l-5.84,27.6h-15.43l14.74-70.64h33.74ZM831.41,1138.88c2.11,0,4.12-.21,6.04-.64,1.91-.43,3.61-1.09,5.09-1.98,1.48-.89,2.67-2.04,3.56-3.46.89-1.42,1.34-3.12,1.34-5.1s-.31-3.45-.94-4.6c-.63-1.15-1.47-2.03-2.52-2.62-1.06-.59-2.28-.99-3.66-1.19-1.39-.2-2.84-.3-4.35-.3h-14.74l-4.15,19.89h14.34Z"/><path class="cls-1" d="M925.1,1106.92l11.77,70.64h-15.43l-2.28-15.73h-26.42l-8.9,15.73h-16.32l41.65-70.64h15.93ZM917.78,1150.25l-3.46-28.1h-.2l-15.24,28.1h18.9Z"/><path class="cls-1" d="M988.71,1106.92l5.44,51.15h.2l27.21-51.15h21.67l-14.94,70.64h-14.54l12.86-56.19h-.2l-29.88,56.19h-11.87l-6.83-56.19h-.2l-10.58,56.19h-14.64l14.84-70.64h21.47Z"/><path class="cls-1" d="M1120.69,1106.92l-2.67,13.06h-38.39l-3.17,15.14h35.52l-2.57,12.07h-35.52l-3.66,17.31h38.98l-2.77,13.06h-54.41l14.74-70.64h53.92Z"/></svg>